<?xml version="1.0" standalone="no"?>
<!DOCTYPE svg PUBLIC "-//W3C//DTD SVG 20010904//EN"
 "http://www.w3.org/TR/2001/REC-SVG-20010904/DTD/svg10.dtd">
<svg version="1.0" xmlns="http://www.w3.org/2000/svg"
 width="837.000000pt" height="837.000000pt" viewBox="0 0 837.000000 837.000000"
 preserveAspectRatio="xMidYMid meet">
<metadata>
Created by potrace 1.14, written by Peter Selinger 2001-2017
</metadata>
<g transform="translate(0.000000,837.000000) scale(0.100000,-0.100000)"
fill="#000000" stroke="none">
<path d="M0 4185 l0 -4185 4185 0 4185 0 0 250 0 250 -62 2 c-35 0 -116 2
-181 3 -73 1 -121 6 -125 12 -4 6 -23 13 -42 16 -27 3 -24 4 17 5 28 1 78 9
110 16 32 8 90 18 128 21 39 3 88 9 110 13 l40 7 3 323 2 322 -27 -1 c-16 0
-50 -4 -78 -9 -221 -36 -284 -42 -425 -42 -85 0 -193 5 -240 11 -94 13 -382
36 -560 46 -63 3 -138 13 -167 21 -50 14 -58 13 -400 -56 -333 -67 -582 -121
-724 -156 -63 -15 -69 -15 -105 2 -22 10 -48 26 -58 36 -19 17 -19 18 -1 38
28 31 94 58 178 71 43 6 95 20 115 31 20 10 44 18 54 18 9 0 19 4 22 9 4 5 39
14 79 21 39 6 88 16 108 21 20 5 47 9 60 9 38 1 154 45 154 58 0 7 25 44 55
83 64 82 159 156 245 189 33 13 83 38 110 54 44 28 58 31 121 29 43 0 83 -7
103 -17 32 -17 45 -5 14 13 -10 6 -13 11 -8 11 6 1 -8 7 -30 15 -43 15 -147
11 -153 -6 -2 -5 -8 -6 -13 -3 -6 3 -17 0 -26 -8 -9 -7 -34 -18 -57 -25 -90
-26 -156 -54 -182 -78 -15 -14 -35 -25 -45 -25 -11 0 -19 -6 -19 -14 0 -19
-63 -51 -68 -36 -6 17 -35 -42 -34 -68 2 -25 -29 -42 -79 -42 -16 0 -37 -4
-47 -9 -9 -5 -38 -18 -64 -28 -37 -14 -44 -20 -30 -26 9 -4 -5 -6 -34 -4 -42
3 -51 1 -50 -12 0 -9 10 -19 21 -23 19 -6 18 -6 -2 -7 -13 -1 -25 -1 -28 -1
-3 0 -5 3 -4 7 0 3 -6 10 -15 15 -13 8 -14 11 -1 26 49 58 84 92 94 92 7 0 9
5 6 10 -3 5 2 10 12 10 14 0 15 2 4 9 -10 7 -6 13 16 26 29 17 34 23 63 81 8
16 20 32 26 36 7 5 10 17 7 28 -6 23 6 26 26 8 11 -11 14 -10 18 0 9 23 53 70
65 69 39 -1 58 6 82 30 23 23 30 25 47 15 16 -10 19 -9 19 5 0 14 4 13 24 -6
21 -20 31 -22 68 -17 24 4 61 8 82 10 41 3 66 25 66 58 0 22 -16 23 -52 4
l-28 -15 0 60 c0 39 4 58 10 54 6 -4 33 1 60 10 56 19 138 17 159 -3 11 -10
18 -10 38 3 24 16 24 16 13 -5 -18 -34 -5 -34 33 -1 46 41 60 40 18 -1 -21
-21 -29 -34 -20 -37 7 -2 23 9 36 24 28 32 43 27 19 -7 -21 -30 -20 -48 3 -48
11 0 22 -4 25 -8 3 -5 19 -7 35 -4 26 4 32 0 41 -22 5 -14 16 -26 25 -26 8 0
15 -4 15 -8 0 -5 84 -10 186 -11 102 -1 196 -6 209 -11 31 -12 37 -31 42 -141
7 -123 -5 -161 -58 -191 -44 -24 -48 -34 -19 -43 32 -10 274 -7 317 3 21 6 59
13 86 17 l47 6 0 118 c0 105 -2 120 -21 140 -11 12 -32 26 -45 31 -25 10 -30
25 -14 50 8 12 31 14 127 12 65 -2 122 -7 128 -13 5 -5 17 -9 27 -9 11 0 18
-7 18 -20 0 -38 46 -72 113 -84 l37 -7 0 1525 0 1525 -56 7 c-31 3 -93 4 -136
0 -70 -6 -86 -4 -129 15 -43 20 -64 39 -41 39 4 0 12 10 17 22 13 29 74 46
179 52 45 3 100 8 124 12 l42 7 0 803 c0 455 -4 804 -9 804 -5 0 -14 -7 -22
-16 -7 -8 -26 -23 -43 -32 -28 -15 -115 -17 -836 -25 -607 -7 -818 -6 -858 3
-119 26 -166 126 -130 279 15 68 56 105 134 123 46 10 189 13 644 13 l585 0
24 23 c39 39 101 55 101 27 0 -8 7 -15 15 -15 9 0 18 -6 21 -14 9 -23 54 -34
159 -39 99 -4 134 -14 188 -50 l27 -18 0 820 0 821 -4185 0 -4185 0 0 -4185z
m2027 3880 c157 -66 41 -233 -165 -237 -35 -1 -65 -5 -68 -10 -8 -12 -114 -10
-114 2 0 6 -12 22 -27 35 -17 15 -22 24 -14 25 11 0 10 5 -4 20 -17 19 -17 21
-2 38 10 10 17 22 17 26 0 5 19 26 41 47 33 31 55 42 108 53 88 19 183 19 228
1z m3689 -121 c38 -18 84 -56 84 -69 0 -4 9 -19 20 -35 11 -15 17 -30 13 -33
-3 -4 1 -17 10 -31 9 -13 16 -32 16 -42 0 -11 4 -37 10 -59 6 -22 11 -109 11
-192 0 -84 3 -153 8 -153 4 0 7 -72 7 -160 0 -136 -2 -160 -15 -160 -13 0 -13
-1 0 -10 21 -13 22 -70 1 -71 -14 -1 -13 -2 2 -6 11 -3 17 -15 18 -36 1 -32 4
-64 9 -82 6 -24 -1 -45 -16 -45 -8 0 -12 5 -9 10 3 6 1 10 -4 10 -6 0 -11 -7
-11 -15 0 -8 9 -15 19 -15 24 0 37 -35 21 -55 -8 -10 -8 -15 1 -20 7 -5 10
-28 7 -66 -4 -52 -2 -59 14 -59 21 0 24 -32 4 -49 -10 -9 -11 -22 -4 -62 8
-46 7 -52 -14 -69 -13 -11 -26 -19 -30 -20 -5 0 -8 -6 -8 -14 0 -7 -7 -19 -15
-26 -8 -7 -15 -29 -15 -50 0 -22 -8 -48 -20 -63 -11 -14 -20 -30 -20 -35 0 -6
-20 -27 -45 -48 -30 -24 -44 -42 -40 -52 9 -25 -4 -50 -40 -72 -18 -11 -36
-27 -39 -35 -3 -8 4 -49 15 -91 17 -65 20 -102 17 -238 -2 -88 0 -197 4 -241
l7 -80 -19 90 c-22 103 -25 177 -9 239 15 60 -2 177 -33 222 -25 36 -37 31
-18 -8 8 -15 -1 -10 -25 15 -22 23 -35 46 -32 56 2 10 -2 17 -12 18 -48 5
-123 23 -149 37 -16 8 -33 12 -37 8 -5 -4 -5 -2 -2 4 4 6 -9 19 -31 29 -20 10
-44 21 -53 26 -22 10 -105 18 -271 24 -146 5 -383 -13 -521 -40 -66 -13 -307
-100 -343 -123 -6 -4 -36 -23 -66 -42 -30 -19 -63 -41 -74 -48 -10 -6 -29 -17
-42 -22 -13 -6 -38 -21 -56 -35 -18 -14 -36 -25 -41 -25 -9 0 -89 -62 -93 -72
-2 -5 -9 -8 -15 -8 -6 0 8 19 31 43 48 49 52 62 17 71 -59 15 -125 102 -125
164 0 42 -147 245 -263 363 -74 76 -234 217 -282 248 -22 14 -42 28 -45 31 -3
3 -33 24 -67 48 -64 44 -93 52 -93 27 0 -8 4 -15 8 -15 13 0 141 -102 198
-157 13 -13 27 -23 32 -23 5 0 27 -20 50 -45 22 -25 66 -67 96 -94 66 -57 172
-188 192 -237 8 -19 21 -37 29 -41 8 -3 15 -10 15 -15 0 -6 20 -31 45 -55 48
-46 54 -63 31 -86 -8 -8 -17 -36 -20 -63 -3 -27 -1 -43 3 -36 10 17 21 -6 22
-46 0 -23 1 -24 8 -7 8 19 8 19 20 -3 8 -15 21 -22 41 -22 17 0 30 -5 30 -12
0 -16 -41 -58 -57 -58 -7 0 -13 -5 -13 -11 0 -7 -7 -8 -17 -4 -10 4 -25 8 -34
9 -8 0 -23 8 -32 17 -14 15 -14 17 9 27 13 7 24 16 24 22 0 15 -16 12 -30 -5
-7 -8 -21 -15 -32 -15 -17 0 -18 3 -8 15 7 8 19 15 26 15 16 0 18 9 6 27 -9
15 -26 5 -36 -22 -7 -19 -8 -19 -17 -2 -6 9 -17 17 -26 17 -12 0 -10 5 8 23
39 38 70 77 59 77 -5 0 -20 -11 -32 -23 -34 -34 -75 -43 -83 -17 -3 11 -3 25
1 32 5 8 2 9 -11 4 -24 -9 -65 19 -65 44 0 11 -3 19 -7 19 -19 -3 -33 2 -33
12 0 17 -43 59 -60 59 -8 0 -33 17 -55 38 -98 91 -250 213 -302 241 -19 10
-23 21 -24 64 l-2 52 -6 -51 c-3 -28 -12 -58 -19 -66 -6 -8 -9 -18 -5 -21 3
-4 2 -7 -4 -7 -6 0 -16 -13 -23 -30 -7 -16 -16 -27 -21 -24 -14 8 -11 62 4 67
6 2 2 2 -10 0 -19 -3 -23 1 -23 22 0 34 -46 54 -65 29 -11 -16 -12 -16 -18 0
-4 9 -13 16 -21 16 -8 0 -19 6 -23 13 -11 17 -74 61 -92 64 -8 1 -17 6 -20 10
-8 12 -92 12 -85 1 5 -8 -26 -22 -41 -19 -11 3 -32 -24 -28 -35 2 -6 -3 -14
-11 -17 -9 -4 -13 -13 -10 -21 3 -9 -6 -19 -26 -27 -17 -8 -29 -20 -28 -29 1
-8 -1 -21 -5 -27 -5 -8 -4 -13 2 -13 6 0 11 -4 11 -10 0 -14 -43 -13 -58 2 -7
7 -12 8 -12 4 0 -5 8 -15 18 -22 15 -12 15 -15 2 -23 -9 -7 -18 -7 -24 -1 -17
17 -23 11 -18 -15 2 -14 8 -25 13 -25 5 0 9 -4 9 -9 0 -6 -12 -6 -32 0 -18 5
-34 9 -35 9 -6 0 12 -36 20 -41 13 -9 -10 -49 -28 -49 -22 0 -18 -27 5 -33 27
-7 42 -48 23 -62 -21 -16 -6 -93 24 -121 19 -18 21 -23 8 -28 -8 -3 -15 -12
-15 -19 0 -8 -7 -20 -15 -27 -19 -16 -19 -35 1 -55 15 -15 15 -17 0 -34 -9
-10 -16 -23 -16 -30 0 -15 25 -41 39 -41 6 0 15 -10 22 -21 6 -12 7 -19 1 -16
-5 4 -18 0 -28 -8 -10 -8 -25 -15 -33 -15 -7 0 -27 -12 -44 -26 -37 -31 -51
-14 -15 18 18 16 19 20 5 15 -10 -4 -23 -7 -28 -7 -5 0 -9 -7 -9 -15 0 -17
-35 -21 -45 -5 -3 5 6 21 21 33 27 23 27 24 6 29 -17 5 -22 2 -22 -12 0 -29
-27 -45 -53 -31 -12 6 -14 9 -5 7 27 -8 33 15 9 35 -12 10 -20 22 -19 28 5 18
-66 100 -87 101 -14 0 -16 3 -7 12 9 9 3 17 -26 34 -34 21 -35 23 -12 24 19 0
21 3 12 12 -20 20 -14 38 13 38 14 0 25 5 25 10 0 14 -58 12 -62 -2 -3 -7 -7
-6 -11 5 -4 11 -2 17 7 17 8 0 11 10 8 30 -2 17 -10 30 -18 30 -10 0 -13 7 -9
23 5 17 -1 33 -19 54 l-26 31 37 31 c20 17 40 31 45 31 5 0 2 12 -5 28 -8 15
-12 33 -10 39 3 7 -2 16 -11 19 -9 3 -16 10 -16 15 0 5 11 4 25 -1 27 -10 33
-2 13 18 -9 9 -8 12 5 12 22 0 22 29 0 46 -16 12 -16 12 5 7 26 -6 29 5 5 23
-17 13 -17 13 0 14 18 0 25 20 7 20 -5 0 -10 4 -10 9 0 9 48 26 64 22 5 -1 2
9 -7 23 -12 18 -13 26 -4 29 9 3 9 7 -1 19 -11 14 -69 16 -455 17 -243 1 -571
6 -728 10 -254 8 -291 11 -332 29 -61 27 -91 82 -91 167 0 128 50 195 162 215
131 23 1455 34 1681 14 55 -5 69 -10 93 -36 15 -17 25 -34 22 -39 -5 -9 18
-39 30 -39 3 0 6 7 6 15 0 18 5 18 29 5 14 -7 21 -4 31 15 7 14 18 25 23 25 5
0 6 12 3 26 -5 17 -3 23 4 19 5 -3 10 -20 10 -36 0 -20 4 -29 13 -26 6 2 11
16 10 31 -2 32 12 34 28 4 8 -14 14 -18 16 -11 3 9 9 8 21 -3 15 -15 17 -15
26 5 9 22 26 29 26 10 0 -5 5 -7 10 -4 6 3 10 -1 10 -9 0 -10 6 -13 15 -10 8
4 15 2 15 -3 0 -8 16 -9 76 -5 15 1 24 11 29 30 10 41 46 84 186 224 85 84
146 136 181 154 77 39 106 66 98 89 -7 21 -30 27 -41 12 -8 -11 -50 24 -42 35
3 5 -4 12 -16 15 -17 4 -21 13 -21 43 0 30 5 39 28 49 44 21 130 41 172 41 29
0 40 4 40 15 0 8 5 15 11 15 6 0 17 -7 25 -15 9 -8 22 -15 30 -15 8 0 14 7 14
15 0 23 19 18 51 -14 l29 -30 -34 -36 c-19 -20 -40 -34 -46 -30 -5 3 -10 1
-10 -4 0 -6 3 -11 8 -11 15 -1 207 65 213 74 4 4 16 5 28 1 12 -4 21 -2 21 4
0 6 -5 11 -11 11 -5 0 -8 4 -5 8 3 5 -7 7 -22 5 -29 -4 -76 26 -54 34 14 6 17
83 2 83 -5 0 -10 -18 -10 -40 0 -29 -4 -40 -15 -40 -11 0 -15 11 -15 43 0 44
14 69 34 61 6 -2 29 14 50 36 21 22 45 40 54 41 95 6 257 -1 260 -10 2 -6 20
-11 40 -11 33 0 39 -5 55 -39 24 -53 30 -107 13 -123 -11 -11 -11 -15 3 -25
14 -12 14 -12 -2 -7 -13 5 -16 2 -11 -10 4 -10 18 -16 39 -16 19 0 64 -6 102
-14 37 -8 109 -17 158 -21 104 -8 102 -7 220 -95 50 -37 113 -82 142 -99 46
-28 54 -31 75 -19 35 20 39 29 34 88 -4 59 0 80 16 80 6 0 8 -11 6 -25 -4 -19
-1 -25 13 -25 24 0 46 24 54 59 7 34 40 68 50 52 3 -6 13 -11 21 -11 8 0 12 5
9 10 -3 6 -3 10 2 10 16 0 62 47 72 73 13 33 50 37 58 7 7 -26 27 -21 31 8 2
13 10 20 23 19 10 -1 19 -5 19 -9 0 -16 30 -7 40 11 14 27 13 30 -10 24 -38
-10 -3 52 37 68 23 8 32 29 13 29 -5 0 -10 12 -10 26 0 25 20 54 38 54 6 0 13
8 17 18 7 16 8 15 15 -3 7 -17 9 -17 9 -2 1 9 4 17 9 17 4 0 18 22 31 50 13
27 32 52 42 55 11 4 19 11 19 16 0 5 5 9 10 9 6 0 20 8 31 18 11 11 39 24 62
31 23 7 53 16 67 21 36 13 123 4 166 -16z m-4167 -19 c2 -3 -4 -12 -15 -19
-10 -8 -16 -18 -11 -22 4 -4 7 -1 7 7 0 11 2 11 10 -1 16 -24 12 -80 -5 -80
-8 0 -15 7 -15 15 0 10 -10 15 -31 15 -17 0 -36 6 -44 13 -19 19 -7 67 16 67
11 0 19 5 19 11 0 11 57 6 69 -6z m5331 -45 c0 -6 32 -10 76 -10 65 0 77 -3
81 -18 2 -10 18 -23 34 -29 25 -10 29 -16 29 -52 0 -30 -6 -44 -22 -55 -29
-21 -137 -22 -164 -1 -10 8 -31 15 -45 15 -30 0 -89 54 -89 81 0 11 5 19 10
19 6 0 10 6 10 13 0 6 15 19 33 28 40 20 47 22 47 9z m-5236 -186 c4 -11 13
-14 30 -10 30 7 87 -20 80 -39 -5 -12 8 -33 44 -70 6 -8 12 -21 12 -30 0 -8
11 -20 24 -25 47 -17 39 -30 -18 -30 -47 0 -56 3 -56 18 0 13 -6 10 -25 -12
-14 -16 -33 -30 -43 -31 -35 -3 -82 -17 -82 -24 0 -4 -21 -8 -47 -10 -56 -3
-61 -6 -73 -37 -9 -22 -40 -42 -80 -50 -63 -14 -160 2 -160 25 0 13 -53 41
-75 41 -9 0 -26 -10 -38 -23 -12 -13 -30 -21 -39 -19 -10 2 -18 -2 -18 -9 0
-7 -3 -9 -7 -6 -3 4 -12 2 -20 -4 -10 -9 -13 -8 -13 5 0 9 -7 16 -15 16 -18 0
-31 30 -40 87 -6 44 17 113 38 113 13 0 47 35 47 48 0 12 56 42 65 34 5 -4 5
-1 1 6 -4 6 -4 12 1 13 4 0 17 3 28 5 51 12 69 10 85 -6 29 -29 56 -40 97 -39
21 0 53 -4 71 -10 28 -8 36 -7 53 10 10 10 26 19 34 19 8 0 15 4 15 8 0 5 18
15 41 22 22 8 42 17 45 22 9 14 32 9 38 -8z m6201 -39 c17 -4 54 -18 83 -31
29 -13 57 -24 62 -24 5 0 11 -15 14 -32 7 -49 6 -78 -3 -78 -4 0 -6 -17 -6
-37 1 -21 -2 -48 -7 -61 -4 -12 -10 -33 -12 -45 -2 -12 -10 -35 -17 -52 -7
-16 -12 -33 -11 -37 1 -5 -2 -8 -7 -8 -5 0 -12 -8 -15 -18 -7 -21 -85 -48
-163 -58 l-53 -6 0 -39 0 -39 -55 0 c-42 0 -55 -3 -55 -15 0 -11 -11 -15 -40
-15 -36 0 -40 -2 -40 -25 0 -16 6 -25 15 -25 8 0 15 -4 15 -10 0 -5 -7 -10
-15 -10 -8 0 -15 5 -15 10 0 6 -7 10 -15 10 -11 0 -15 -11 -15 -40 l0 -40 -65
0 c-51 0 -65 -3 -65 -15 0 -13 -28 -15 -192 -15 -106 0 -203 3 -215 6 -40 11
-25 24 27 24 38 0 50 4 50 15 0 12 -15 15 -75 15 -73 0 -75 1 -75 25 0 16 -6
25 -15 25 -11 0 -15 11 -15 40 0 36 -2 40 -25 40 -22 0 -25 4 -25 40 0 29 -4
40 -15 40 -11 0 -15 11 -15 40 0 22 3 39 8 39 34 -6 42 2 42 42 0 32 6 47 30
71 17 16 30 40 30 53 0 13 6 28 14 32 22 12 66 81 66 103 0 11 5 20 11 20 7 0
27 16 45 35 30 32 37 35 69 29 23 -4 35 -2 35 5 0 21 25 10 70 -29 24 -22 50
-40 57 -40 7 0 13 -11 13 -25 0 -14 5 -25 10 -25 6 0 10 -12 10 -26 0 -46 25
-20 28 29 2 28 8 47 15 47 7 0 21 11 31 24 10 14 31 28 47 31 16 4 31 11 34
16 8 12 45 12 45 -1 0 -5 7 -10 15 -10 7 0 18 -7 23 -15 16 -30 162 -32 162
-3 0 7 10 23 23 35 23 24 64 26 142 8z m-4398 -261 c-3 -3 -12 -4 -19 -1 -8 3
-5 6 6 6 11 1 17 -2 13 -5z m2493 -530 c0 -8 -6 -14 -14 -14 -9 0 -12 7 -9 20
6 22 23 18 23 -6z m1083 -21 c-13 -2 -33 -2 -45 0 -13 2 -3 4 22 4 25 0 35 -2
23 -4z m-4273 -624 c0 -11 -4 -17 -10 -14 -5 3 -10 13 -10 21 0 8 5 14 10 14
6 0 10 -9 10 -21z m1909 -319 c5 0 14 7 21 15 9 10 17 12 23 6 6 -6 18 -6 33
1 20 9 27 8 39 -8 14 -19 14 -19 15 1 1 13 4 15 7 6 5 -11 7 -11 14 0 6 10 9
8 9 -8 0 -23 15 -32 22 -14 2 5 15 13 31 16 20 5 27 4 27 -8 0 -8 9 -17 19
-20 16 -4 18 -11 14 -51 -4 -28 -2 -46 5 -46 15 0 23 28 9 33 -8 3 -4 12 11
26 27 26 27 25 2 -69 -24 -91 -23 -85 -5 -70 22 19 31 4 10 -17 -10 -9 -24
-32 -31 -49 -17 -41 -34 -52 -49 -31 -7 10 -18 17 -25 17 -7 0 -10 3 -6 8 4 4
20 7 34 7 26 0 27 2 27 63 1 34 -2 62 -6 62 -4 0 -14 -14 -23 -31 -13 -26 -13
-29 -1 -19 11 9 15 9 15 1 0 -19 -25 -23 -53 -8 -15 8 -25 16 -23 18 2 2 -11
4 -30 5 -21 0 -30 -3 -22 -8 10 -6 10 -8 -2 -8 -8 0 -21 4 -29 9 -11 7 -20 3
-33 -11 -10 -12 -18 -25 -18 -29 0 -17 22 -20 40 -4 21 19 35 6 25 -25 -8 -24
22 -29 31 -5 5 11 10 13 19 5 7 -6 21 -7 31 -4 17 6 17 5 3 -7 -9 -8 -23 -25
-32 -39 -16 -23 -16 -25 6 -38 15 -9 16 -12 4 -8 -11 3 -24 3 -30 -1 -18 -11
-36 -12 -43 -2 -3 5 -1 9 3 9 5 0 17 14 26 30 15 25 16 30 4 30 -8 0 -17 -7
-21 -15 -3 -8 -12 -12 -21 -9 -8 3 -12 10 -9 15 3 5 0 9 -7 9 -7 0 -9 -10 -7
-25 7 -35 -5 -31 -19 5 -12 31 -40 40 -49 16 -7 -17 26 -94 43 -100 7 -3 13
-1 13 4 0 16 22 11 36 -7 13 -17 15 -17 30 2 13 17 17 18 27 5 7 -8 20 -16 31
-18 14 -3 17 1 12 14 -7 18 19 54 38 54 6 0 3 -7 -8 -15 -10 -7 -15 -19 -11
-25 5 -9 10 -9 18 -1 16 16 27 14 27 -5 0 -9 -5 -12 -12 -8 -8 5 -9 2 -4 -12
5 -10 10 -28 13 -39 17 -72 161 -234 209 -235 33 0 109 122 94 151 -5 8 -5 21
0 29 8 13 -7 59 -24 71 -15 11 2 39 24 39 11 0 20 5 20 10 0 6 -4 10 -9 10 -5
0 -11 6 -14 13 -4 10 3 12 24 9 17 -3 29 0 29 7 0 6 9 11 20 11 11 0 20 -5 20
-11 0 -7 10 -9 25 -7 14 3 25 1 25 -3 0 -5 -20 -8 -43 -8 -24 1 -49 -1 -55 -5
-19 -12 -14 -28 7 -21 18 6 37 -18 26 -34 -2 -5 8 -7 23 -5 l27 4 -28 -9 c-16
-6 -35 -7 -42 -5 -7 3 -16 1 -19 -4 -3 -6 8 -15 26 -21 39 -14 39 -14 31 5 -4
12 -2 15 8 12 8 -3 13 -13 11 -23 -2 -9 1 -14 7 -11 6 4 9 -6 9 -24 -1 -22 -5
-29 -15 -26 -7 3 -13 1 -13 -4 0 -6 6 -10 14 -10 7 0 19 -7 26 -16 11 -12 10
-18 -5 -32 -10 -9 -15 -11 -11 -4 4 6 3 12 -2 12 -21 0 -19 -15 6 -48 17 -23
23 -37 15 -39 -9 -3 -9 -12 -2 -30 12 -32 3 -46 -22 -33 -26 14 -25 -4 2 -31
29 -29 19 -50 -20 -39 -37 10 -38 7 -9 -19 19 -18 19 -21 5 -27 -15 -5 -14 -8
6 -24 25 -21 19 -32 -18 -32 -17 0 -23 -4 -17 -12 5 -6 10 -18 10 -26 2 -33 9
-54 20 -58 7 -2 12 -8 12 -13 0 -6 -4 -8 -9 -4 -14 8 -24 -14 -13 -28 5 -7 8
-25 6 -41 -1 -16 2 -38 8 -49 8 -16 7 -19 -3 -15 -11 4 -15 -8 -16 -50 -2 -30
-7 -60 -12 -66 -5 -6 -11 -20 -13 -31 -3 -22 -52 -75 -68 -75 -5 0 -10 -9 -10
-20 0 -11 -4 -20 -10 -20 -5 0 -10 -7 -10 -15 0 -8 -5 -15 -10 -15 -6 0 -16
-11 -22 -25 -6 -14 -17 -25 -25 -25 -7 0 -16 -7 -19 -15 -4 -8 -12 -15 -20
-15 -8 0 -14 -4 -14 -10 0 -15 -41 -33 -52 -22 -11 11 1 64 13 56 14 -8 11 34
-3 43 -7 4 -22 8 -32 8 -11 0 -21 6 -24 14 -3 8 0 11 6 7 13 -8 27 56 18 79
-4 10 8 30 33 54 81 79 118 167 106 249 -5 36 -9 42 -23 36 -25 -11 -212 -13
-212 -3 0 5 -12 6 -26 3 -19 -5 -25 -3 -20 4 4 6 -2 20 -14 32 -27 27 -26 32
13 55 26 16 29 20 14 23 -42 8 -158 -61 -200 -119 -15 -21 -30 -52 -34 -71 -8
-40 -33 -70 -34 -41 0 14 -2 15 -6 3 -3 -8 -14 -32 -23 -52 -10 -21 -15 -38
-10 -38 4 0 13 14 19 30 5 17 13 30 16 30 3 0 3 -5 0 -10 -4 -6 -1 -17 5 -25
10 -12 9 -15 -4 -15 -25 0 -19 -25 9 -38 14 -6 25 -17 25 -23 0 -8 -6 -7 -17
3 -32 27 -43 30 -41 11 2 -33 -2 -53 -12 -53 -5 0 -10 11 -10 24 0 13 -7 29
-15 36 -13 11 -15 7 -15 -24 0 -20 -2 -36 -5 -36 -3 0 -16 12 -29 27 -33 38
-55 26 -50 -26 2 -22 -1 -43 -6 -46 -6 -3 -10 4 -10 17 0 14 -7 33 -15 44 -14
19 -14 18 -15 -3 0 -13 -4 -23 -10 -23 -5 0 -10 6 -10 14 0 8 5 18 10 21 6 3
10 15 10 27 0 15 4 18 17 14 10 -4 14 -4 10 1 -10 9 -67 13 -65 4 1 -3 -4 -17
-10 -31 -12 -25 -12 -25 -7 5 3 22 -2 37 -20 58 -13 15 -27 27 -30 27 -3 0 -5
-12 -5 -27 0 -23 -18 -69 -20 -53 -6 36 -5 80 0 80 13 0 21 33 11 43 -7 7 -17
-5 -31 -36 -19 -42 -23 -46 -40 -34 -22 13 -27 28 -8 24 6 -1 14 6 16 17 3 16
0 18 -22 12 -21 -5 -26 -3 -26 13 0 11 6 21 13 24 6 2 9 7 5 11 -3 4 -16 3
-27 -4 -28 -15 -28 6 0 36 l21 22 -21 7 c-27 8 -26 81 1 88 12 3 16 11 12 21
-4 11 -1 16 11 16 12 0 16 6 12 19 -3 13 5 26 24 40 15 12 32 21 38 21 10 0
25 44 25 78 1 12 7 26 13 30 7 5 14 20 15 35 2 19 8 27 23 28 15 0 16 2 5 7
-21 10 -23 32 -3 32 9 0 13 3 10 6 -3 4 5 15 18 26 14 11 23 24 20 28 -7 12
31 50 50 50 8 0 15 3 15 8 0 11 62 36 87 34 13 -1 28 7 37 20 12 17 18 20 28
10 14 -14 32 -16 23 -3 -3 5 -1 12 4 15 5 4 12 2 16 -4 9 -15 27 -1 21 17 -3
8 -2 11 3 8 5 -3 12 3 15 13 7 21 -17 76 -27 65 -4 -3 -7 5 -8 18 0 13 -3 18
-6 12 -7 -18 -23 -16 -23 2 0 21 -20 19 -20 -2 -1 -14 -6 -12 -26 10 -13 16
-32 30 -40 31 -9 1 -20 9 -25 17 -6 10 -9 10 -9 2 0 -7 -4 -13 -9 -13 -8 0 -8
62 -1 80 1 3 1 18 0 34 -1 21 2 26 12 21 10 -6 11 -5 1 6 -7 7 -13 24 -13 39
1 24 1 24 15 6 15 -19 15 -19 16 5 1 17 3 19 6 7 6 -24 24 -23 30 3 3 11 11
18 18 15 7 -2 18 1 24 7 8 8 12 2 17 -21 7 -35 24 -34 24 3 0 12 7 25 15 29 8
3 16 13 16 23 1 13 3 11 6 -4 2 -13 8 -23 12 -23z m-1618 -10 c18 0 18 -1 -1
-35 -11 -19 -16 -35 -12 -36 4 0 -4 -5 -17 -10 -29 -12 -38 -5 -21 16 7 8 14
32 15 53 4 46 6 52 12 30 2 -10 13 -18 24 -18z m62 -36 c21 -8 23 -44 2 -44
-8 0 -15 -6 -15 -14 0 -27 -25 -37 -54 -22 -16 8 -23 17 -17 20 6 4 18 23 27
42 9 19 22 32 28 29 6 -3 19 -8 29 -11z m1269 -21 c3 -15 4 -15 19 0 19 19 29
13 29 -19 0 -34 18 -39 23 -7 3 20 4 16 6 -14 0 -23 -3 -44 -7 -47 -5 -3 -7
-22 -6 -42 3 -34 2 -35 -11 -18 -8 10 -15 35 -15 54 -1 65 -17 65 -24 1 -8
-67 -19 -77 -35 -31 -5 17 -6 28 -1 25 15 -9 23 41 11 63 -13 25 -14 52 -2 52
5 0 11 -8 13 -17z m633 -13 c-1 -23 -21 -47 -31 -38 -5 5 23 58 30 58 2 0 2
-9 1 -20z m-673 -19 c15 8 18 6 18 -10 0 -23 -16 -36 -25 -21 -10 17 -25 11
-25 -10 0 -13 -7 -20 -20 -20 -11 0 -20 7 -20 15 0 8 7 15 15 15 9 0 15 9 15
22 0 17 3 19 12 10 7 -7 17 -8 30 -1z m853 -21 c-3 -5 -11 -10 -16 -10 -6 0
-7 5 -4 10 3 6 11 10 16 10 6 0 7 -4 4 -10z m-958 -57 c-3 -10 -5 -2 -5 17 0
19 2 27 5 18 2 -10 2 -26 0 -35z m753 22 c10 -12 10 -15 -4 -15 -9 0 -16 7
-16 15 0 8 2 15 4 15 2 0 9 -7 16 -15z m-1931 -22 c-6 -7 -15 -10 -20 -7 -13
8 -3 21 15 21 12 0 13 -4 5 -14z m1281 -13 c0 -16 -4 -30 -9 -30 -4 0 -8 13
-7 30 1 39 16 39 16 0z m520 -14 c0 -3 -4 -8 -10 -11 -5 -3 -10 -1 -10 4 0 6
5 11 10 11 6 0 10 -2 10 -4z m60 -20 c0 -18 -16 -29 -30 -21 -6 4 -5 11 3 20
16 18 27 19 27 1z m-1800 -16 c0 -5 -4 -10 -10 -10 -5 0 -10 5 -10 10 0 6 5
10 10 10 6 0 10 -4 10 -10z m2120 6 c0 -2 -9 -6 -20 -9 -11 -3 -18 -1 -14 4 5
9 34 13 34 5z m-3326 -31 c-4 -8 -1 -15 5 -15 6 0 11 -4 11 -9 0 -5 -11 -4
-23 2 -18 8 -21 14 -13 24 15 17 27 16 20 -2z m2976 -35 c0 -5 -4 -10 -10 -10
-5 0 -10 5 -10 10 0 6 5 10 10 10 6 0 10 -4 10 -10z m-1230 -20 c0 -5 -4 -10
-10 -10 -5 0 -10 5 -10 10 0 6 5 10 10 10 6 0 10 -4 10 -10z m956 -17 c-7 -7
-26 7 -26 19 0 6 6 6 15 -2 9 -7 13 -15 11 -17z m453 -2 c38 -35 42 -66 9 -55
-35 10 -96 43 -103 54 -10 17 5 30 35 30 17 0 40 -11 59 -29z m-1449 -26 c0
-8 -4 -15 -10 -15 -5 0 -7 7 -4 15 4 8 8 15 10 15 2 0 4 -7 4 -15z m1715 5 c4
-6 -5 -10 -19 -10 -14 0 -26 5 -26 10 0 6 9 10 19 10 11 0 23 -4 26 -10z
m-1831 -39 c4 -5 -7 -12 -24 -16 -16 -4 -30 -11 -30 -16 0 -5 -6 -9 -12 -9 -7
1 1 12 17 25 33 27 41 30 49 16z m610 -142 c35 -27 34 -49 -3 -49 -39 0 -86
37 -70 56 16 20 42 17 73 -7z m-684 -69 c0 -5 -5 -10 -11 -10 -5 0 -7 5 -4 10
3 6 8 10 11 10 2 0 4 -4 4 -10z m-106 -254 c-10 -31 -20 -54 -22 -51 -2 2 4
29 13 60 10 30 20 53 22 51 3 -2 -3 -29 -13 -60z m2336 -92 c-6 -16 -18 -63
-27 -104 l-15 -75 52 -48 c29 -26 78 -65 109 -86 90 -62 95 -70 94 -162 l-1
-80 71 -49 c40 -27 81 -57 92 -67 11 -10 54 -43 95 -73 128 -92 190 -150 190
-174 0 -32 30 -57 59 -49 19 5 22 3 16 -8 -4 -8 6 -1 23 15 22 20 32 25 32 15
0 -8 -5 -20 -12 -27 -16 -16 -4 -25 32 -25 17 0 30 -4 30 -9 0 -4 9 -8 20 -8
22 0 26 -10 9 -27 -9 -9 -7 -10 10 -6 13 3 21 1 21 -7 0 -9 7 -6 21 6 22 19
22 19 14 -6 -7 -22 -4 -21 24 10 29 33 31 34 31 12 0 -13 7 -30 15 -39 9 -9
13 -23 10 -34 -9 -27 19 -25 39 4 16 22 16 22 9 -7 -5 -26 -4 -29 16 -23 13 3
21 1 21 -8 0 -9 8 -11 23 -7 21 5 21 4 5 -15 -23 -26 -23 -32 3 -26 17 5 19 2
13 -21 -5 -22 -3 -26 15 -26 25 0 26 -3 5 -35 -9 -14 -12 -25 -7 -25 21 0 65
-51 60 -70 -3 -13 0 -17 9 -13 9 3 12 -1 10 -14 -4 -16 1 -19 27 -17 18 2 23
1 12 -2 -11 -4 -28 -13 -38 -22 -16 -14 -16 -16 5 -27 16 -8 22 -19 21 -36 -4
-42 96 77 149 177 52 100 98 177 146 246 68 98 106 205 69 193 -7 -2 -120 -6
-252 -8 -182 -4 -246 -2 -265 8 -14 7 -47 16 -75 19 -83 12 -127 28 -120 44 3
7 5 29 5 48 0 26 4 34 18 34 10 0 22 4 27 9 6 5 33 12 60 14 28 3 100 11 160
17 61 6 148 17 195 25 90 16 280 21 280 7 0 -4 8 -8 18 -9 53 -4 202 -42 232
-58 54 -31 64 -43 48 -57 -21 -21 -94 -58 -113 -58 -9 0 -32 -7 -51 -16 -19
-9 -47 -14 -64 -12 -21 3 -30 0 -30 -9 0 -8 -4 -12 -8 -9 -4 2 -16 -19 -26
-47 -10 -29 -21 -54 -25 -57 -11 -9 -166 -252 -204 -320 -19 -36 -56 -94 -81
-129 -45 -63 -58 -105 -34 -113 7 -3 6 -12 -6 -31 -17 -26 -17 -26 13 -56 17
-17 30 -36 29 -43 -2 -9 11 -12 47 -11 46 1 48 0 31 -13 -11 -8 -33 -14 -49
-14 -16 0 -26 -4 -22 -10 3 -5 -2 -10 -11 -10 -13 0 -15 -3 -7 -11 6 -6 9 -18
6 -25 -4 -10 3 -14 23 -14 30 0 23 -15 -9 -22 -28 -5 -24 -23 8 -28 33 -6 47
-30 16 -30 -27 0 -37 -19 -18 -37 14 -14 14 -18 -6 -33 l-21 -17 22 -7 c12 -4
22 -16 22 -26 0 -10 3 -25 6 -33 4 -11 -2 -17 -18 -19 -14 -2 -22 -9 -19 -18
10 -43 11 -70 3 -70 -10 0 -9 -63 2 -98 7 -21 6 -23 -12 -13 -28 15 -45 14
-39 -3 3 -8 -1 -17 -9 -20 -9 -3 -12 -11 -8 -17 4 -7 -3 -19 -16 -29 l-23 -17
23 -23 c16 -16 18 -21 7 -17 -9 4 -24 10 -34 14 -13 5 -15 2 -11 -15 6 -20 5
-21 -15 -7 -29 20 -37 19 -37 -5 0 -11 -5 -20 -11 -20 -5 0 -7 -4 -4 -10 3 -5
-1 -10 -9 -10 -22 0 -20 -16 4 -40 30 -30 24 -34 -12 -9 l-31 23 6 -25 c6 -24
6 -24 -11 -4 -9 12 -24 24 -33 27 -13 5 -16 2 -12 -15 3 -16 2 -18 -5 -8 -12
16 -25 -1 -16 -22 7 -20 -54 -29 -79 -12 -16 11 -16 14 -3 27 8 8 16 26 18 39
2 17 9 24 25 24 11 0 25 3 29 7 4 4 14 2 22 -5 13 -10 14 -9 8 1 -12 20 2 48
31 61 17 8 23 15 16 19 -7 5 -9 20 -4 42 6 31 11 35 37 33 16 -1 22 1 12 3
-36 11 -47 105 -13 118 14 5 19 64 16 174 -1 34 3 71 8 81 7 12 6 22 -1 29 -9
9 -9 15 0 24 18 18 15 36 -8 43 -11 3 -19 9 -19 13 3 21 -2 52 -8 50 -5 -1
-18 3 -30 10 -14 8 -20 18 -16 32 4 14 0 20 -12 20 -10 0 -15 6 -13 18 2 11
-6 21 -22 29 l-25 11 24 1 c18 1 22 5 16 19 -5 9 -10 32 -13 50 -2 17 -8 32
-13 32 -5 0 -9 7 -9 15 0 8 -8 30 -18 49 -14 25 -22 32 -33 25 -22 -14 -24
-12 -43 36 -11 25 -25 45 -32 45 -8 0 -10 8 -6 22 4 17 2 20 -11 15 -10 -4
-17 -2 -17 4 0 6 -8 9 -18 7 -13 -4 -22 4 -32 26 l-14 31 -10 -27 c-5 -16 -17
-29 -25 -29 -48 -4 -103 -8 -162 -10 -59 -2 -66 -4 -62 -20 4 -13 0 -19 -11
-19 -9 0 -25 -9 -36 -20 -11 -11 -26 -20 -34 -20 -8 0 -16 -8 -18 -17 -3 -14
-15 -7 -60 35 -33 31 -59 49 -63 43 -10 -18 -25 -12 -18 7 11 30 36 53 86 78
l47 24 28 -19 c27 -20 27 -20 86 -1 33 11 62 23 65 26 7 7 -81 -2 -116 -12
-32 -9 -29 12 3 29 26 14 26 14 -15 15 -30 1 -39 -2 -35 -11 3 -9 -10 -18 -38
-26 -24 -7 -53 -19 -66 -28 -17 -10 -27 -11 -36 -4 -9 8 -19 3 -37 -17 -33
-36 -59 -78 -59 -96 0 -8 -3 -16 -7 -18 -5 -1 -18 -18 -31 -36 -19 -26 -21
-36 -12 -48 7 -8 20 -14 30 -14 10 0 20 -6 23 -13 6 -16 -32 -20 -50 -5 -9 7
-30 0 -78 -26 -36 -20 -68 -36 -70 -36 -3 0 -5 8 -5 18 0 24 27 49 69 63 29
10 32 15 28 43 -2 17 -7 39 -12 49 -6 14 -4 16 11 11 12 -4 5 7 -16 27 -34 33
-35 34 -11 37 l23 4 -21 14 c-28 20 -26 30 6 46 20 9 30 23 34 48 4 19 21 73
38 119 40 108 40 133 0 56 -18 -33 -38 -69 -45 -79 -13 -18 -14 -18 -24 8 -7
19 -7 33 0 47 9 16 7 21 -15 29 -36 14 -43 7 -75 -64 -37 -82 -61 -213 -55
-301 l5 -70 -14 44 c-8 24 -18 74 -22 110 -7 63 -8 65 -16 31 -5 -19 -9 -46
-9 -60 0 -14 -3 -31 -8 -39 -11 -18 -41 -7 -41 14 0 9 -7 23 -15 32 -11 11
-13 19 -5 28 19 22 -15 82 -53 94 -46 15 -77 47 -77 77 0 21 -4 25 -22 22 -19
-2 -24 -10 -26 -42 l-3 -39 -52 6 c-29 4 -106 9 -172 12 -66 4 -139 8 -162 10
-46 3 -51 -3 -47 -55 2 -19 6 -124 10 -233 l7 -198 -44 3 c-35 2 -46 8 -56 28
-14 27 -4 37 23 22 39 -22 69 11 52 57 -7 21 -13 23 -46 17 l-38 -6 -2 53 c-3
84 -23 312 -28 317 -15 14 -23 -35 -18 -105 3 -44 7 -149 7 -234 l2 -155 -30
0 -30 0 -3 96 c-2 84 -5 97 -20 95 -14 -1 -17 -13 -18 -74 0 -40 3 -70 8 -67
4 3 8 -8 8 -24 0 -27 -4 -30 -37 -34 -21 -3 -60 -2 -88 1 -48 6 -47 6 29 11
53 3 80 9 82 18 1 7 0 8 -3 2 -11 -23 -21 -7 -27 43 -4 28 -8 61 -10 72 -3 11
-5 24 -5 29 -2 19 -12 -3 -16 -34 -4 -32 -15 -55 -15 -32 0 7 -7 12 -15 12 -8
0 -15 -4 -15 -10 0 -16 -27 -12 -34 5 -3 8 -3 29 1 46 l6 31 -56 -3 c-43 -3
-58 0 -66 13 -15 25 7 29 139 28 63 -1 121 -1 128 -1 11 1 12 20 7 94 -7 91
-17 123 -28 93 -3 -8 -2 -18 3 -21 6 -4 10 -26 10 -51 0 -40 -2 -44 -25 -44
-13 0 -28 7 -33 16 -8 15 -12 15 -43 1 -52 -24 -79 -30 -79 -18 0 6 5 11 10
11 18 0 11 20 -7 20 -24 1 -57 26 -49 38 3 5 37 12 76 16 38 4 70 11 70 15 0
5 -34 12 -75 16 l-75 7 0 35 c0 35 0 35 -39 31 -35 -3 -38 -2 -31 17 7 18 17
20 136 23 71 1 141 -2 158 -8 20 -7 33 -7 40 0 14 14 153 13 162 -1 4 -8 9 -8
17 0 6 6 26 11 43 11 24 0 34 5 39 19 3 11 22 25 43 32 20 6 44 17 52 23 8 6
39 23 67 36 34 16 53 31 53 43 0 9 4 17 9 17 5 0 32 22 59 49 28 27 63 56 79
64 30 16 175 158 168 166 -3 2 -25 -14 -51 -35 -25 -21 -56 -46 -68 -54 -13
-8 -41 -27 -64 -42 -22 -15 -43 -31 -46 -37 -3 -5 -41 -29 -84 -54 -86 -51
-207 -91 -297 -101 -60 -6 -59 -6 35 23 129 38 160 53 254 115 93 62 138 107
154 156 l12 35 -19 -22 c-11 -13 -22 -23 -26 -23 -3 0 -33 -18 -66 -40 -33
-22 -63 -40 -66 -40 -3 0 -20 -11 -37 -24 -45 -34 -140 -65 -226 -74 -89 -9
-186 -4 -155 9 11 4 37 8 57 8 52 1 176 28 223 48 63 27 173 100 185 123 9 17
8 20 -12 21 -19 1 -20 2 -4 6 10 3 37 18 59 34 22 16 46 29 52 29 20 0 122
110 172 186 52 77 114 199 144 282 38 105 62 163 66 159 2 -2 -1 -17 -7 -33z
m-2320 -156 c38 -102 149 -252 236 -319 30 -23 52 -44 50 -47 -3 -2 -12 3 -21
12 -9 9 -19 16 -23 16 -4 0 -28 19 -53 43 -119 110 -241 338 -238 446 1 28 4
22 14 -29 7 -36 23 -91 35 -122z m-701 62 c35 -31 29 -43 -7 -12 -11 9 -29 22
-39 29 -14 9 -15 12 -3 12 8 0 30 -13 49 -29z m2474 -7 c-6 -2 -10 -12 -8 -21
1 -9 0 -11 -2 -4 -6 17 -23 15 -23 -3 0 -9 -6 -12 -16 -8 -13 5 -11 10 13 28
15 13 32 20 38 17 5 -3 5 -7 -2 -9z m-2316 -78 c109 -49 197 -109 231 -158 63
-91 93 -134 103 -152 16 -28 -47 40 -101 109 -54 70 -95 104 -175 143 -73 35
-175 93 -175 99 0 10 25 1 117 -41z m1498 -112 c-10 -55 -21 -60 -17 -8 2 25
9 45 14 45 6 0 8 -14 3 -37z m49 -38 c3 -8 1 -15 -4 -15 -6 0 -10 7 -10 15 0
8 2 15 4 15 2 0 6 -7 10 -15z m96 -79 c0 -3 -4 -8 -10 -11 -5 -3 -10 -1 -10 4
0 6 5 11 10 11 6 0 10 -2 10 -4z m90 -47 c0 -5 -4 -9 -10 -9 -5 0 -10 7 -10
16 0 8 5 12 10 9 6 -3 10 -10 10 -16z m-1370 -69 c0 -5 -2 -10 -4 -10 -3 0 -8
5 -11 10 -3 6 -1 10 4 10 6 0 11 -4 11 -10z m1660 -156 c0 -8 -4 -12 -10 -9
-5 3 -10 10 -10 16 0 5 5 9 10 9 6 0 10 -7 10 -16z m-2176 -26 c86 -46 158
-117 232 -230 35 -53 64 -100 64 -105 1 -4 9 -26 20 -48 29 -60 24 -67 -8 -10
-49 87 -56 98 -113 175 -52 70 -181 200 -198 200 -4 0 -22 11 -41 25 -46 34
-30 31 44 -7z m-259 -5 c22 -14 42 -29 45 -33 3 -4 13 -9 23 -13 9 -3 17 -13
17 -22 0 -8 3 -15 8 -15 4 0 12 -11 18 -24 10 -21 9 -25 -10 -30 -16 -4 -18
-8 -8 -18 6 -6 12 -18 12 -26 0 -8 7 -20 17 -27 30 -22 5 -38 -48 -32 -46 6
-66 -4 -34 -17 18 -7 20 -26 2 -26 -7 0 -18 -10 -26 -21 -11 -19 -11 -21 2
-16 19 7 39 -14 29 -30 -5 -9 -24 -8 -72 2 -84 18 -91 18 -83 -1 3 -8 12 -13
19 -10 7 3 16 1 18 -3 6 -10 123 -34 134 -28 4 3 18 0 32 -5 25 -10 25 -10
-15 -28 -28 -13 -34 -19 -20 -20 19 -1 19 -1 2 -14 -15 -12 -12 -14 27 -19 24
-4 58 -2 76 3 18 5 37 7 41 4 5 -3 9 1 10 8 0 10 2 10 6 1 2 -7 15 -13 28 -13
13 0 26 -4 30 -10 7 -11 55 28 55 46 0 7 5 16 10 19 12 8 40 -18 40 -38 0 -8
9 -22 19 -31 18 -16 20 -16 35 5 14 21 16 21 22 5 7 -17 8 -17 17 -1 6 11 6
20 0 24 -13 8 -24 41 -14 41 10 0 31 -45 31 -67 0 -10 6 -13 16 -9 10 4 22 -1
30 -11 12 -16 13 -16 14 10 l0 28 26 -20 c24 -19 51 -20 39 -2 -2 5 -1 21 4
38 6 20 4 35 -5 48 -18 24 -18 46 0 23 7 -10 18 -18 23 -18 11 0 24 -49 23
-89 0 -24 0 -24 15 -5 14 19 15 19 21 -4 5 -18 9 -20 20 -11 8 6 14 7 14 2 0
-16 65 -9 84 10 19 19 56 23 56 6 0 -6 -9 -13 -20 -16 -32 -8 -23 -19 16 -20
20 -1 41 -6 47 -12 15 -15 27 -14 27 4 0 19 9 19 30 0 10 -9 59 -22 109 -30
88 -15 143 -34 156 -54 3 -5 51 -34 108 -65 136 -73 165 -99 173 -155 6 -36 5
-43 -7 -35 -8 5 -17 9 -21 9 -3 0 -19 11 -35 25 -25 23 -61 41 -133 70 -14 6
-30 20 -35 33 -6 12 -18 23 -29 25 -17 4 -18 3 -2 -19 21 -30 20 -46 -3 -58
-12 -7 -31 -7 -57 0 -29 9 -39 8 -42 -1 -3 -7 -20 4 -41 28 -28 31 -46 41 -81
46 -60 10 -110 26 -110 36 0 10 26 20 54 20 12 0 26 4 31 9 6 5 21 11 35 14
14 2 2 5 -26 6 -32 0 -68 -6 -95 -18 -31 -14 -56 -18 -95 -14 -58 6 -114 -10
-114 -34 0 -11 10 -12 48 -7 39 5 56 1 99 -20 56 -29 93 -67 93 -98 0 -25 -2
-24 -115 41 -93 53 -109 59 -121 40 -10 -17 36 -49 72 -49 21 0 40 -10 62 -33
18 -18 29 -36 26 -40 -14 -14 -111 -7 -124 8 -18 21 -40 19 -68 -7 l-24 -23 3
33 c3 27 -1 35 -25 47 -35 18 -56 19 -56 3 0 -7 -16 -24 -35 -38 -19 -14 -37
-32 -40 -40 -7 -23 -63 -49 -118 -56 -50 -7 -52 -24 -3 -29 42 -5 45 -12 28
-58 -21 -55 -20 -54 -38 -29 -13 19 -54 32 -54 17 0 -18 48 -55 72 -55 47 0
31 -18 -22 -25 -39 -5 -48 -10 -40 -19 5 -7 7 -16 3 -19 -10 -10 -53 -8 -53 2
0 15 -138 25 -155 11 -20 -16 -57 -6 -73 21 -25 40 12 51 103 30 28 -6 64 -14
80 -17 27 -5 28 -4 10 7 -11 7 -26 19 -33 26 -7 7 -25 16 -40 19 -15 4 -38 13
-51 21 -22 14 -24 14 -18 -1 5 -12 1 -16 -14 -16 -15 0 -19 5 -15 15 3 8 2 15
-3 15 -5 0 -12 -11 -15 -25 -4 -14 -18 -31 -31 -37 -14 -6 -25 -15 -25 -20 0
-5 -10 -8 -22 -6 -15 2 -22 9 -20 20 2 12 -10 19 -48 27 -28 6 -59 11 -70 11
-10 0 -20 6 -23 13 -2 6 -7 9 -11 6 -3 -3 -4 -14 0 -23 5 -12 20 -16 64 -16
33 0 62 -4 65 -10 3 -5 -3 -10 -14 -10 -22 0 -28 -14 -11 -25 18 -11 -1 -26
-23 -19 -12 4 -24 10 -27 14 -9 12 -71 39 -106 46 -26 5 -34 3 -34 -9 0 -9
-14 -17 -40 -21 -22 -3 -40 -11 -40 -16 0 -6 -18 -27 -40 -47 -35 -32 -46 -37
-92 -38 -69 -2 -153 -27 -183 -55 -24 -23 -45 -20 -45 6 0 8 -6 14 -14 14 -7
0 -19 7 -26 15 -19 23 13 30 43 11 13 -9 32 -14 41 -10 23 9 20 27 -4 19 -35
-11 -21 12 18 29 l37 17 -37 -5 c-21 -3 -40 -1 -43 4 -3 4 1 8 8 7 6 0 23 1
37 2 l25 1 -25 20 c-14 10 -39 21 -57 25 -38 7 -43 26 -10 40 13 6 21 17 19
28 -2 9 2 17 9 17 9 0 9 3 0 14 -9 11 -8 15 5 20 13 5 15 9 6 18 -18 18 -14
27 7 21 22 -6 54 14 59 36 2 9 -4 12 -18 8 -20 -5 -21 -4 -6 12 9 9 18 37 21
61 3 24 16 58 29 75 12 16 26 37 29 45 4 8 18 33 32 55 13 22 24 47 25 56 0 9
7 20 16 23 12 5 15 16 12 43 -3 26 2 48 15 70 10 18 16 37 12 43 -3 5 5 14 19
20 19 7 26 17 26 35 0 14 7 28 15 31 8 4 15 14 15 25 0 10 9 23 20 29 11 6 20
17 20 24 0 8 20 33 45 57 25 24 45 48 45 54 0 6 10 20 23 31 12 11 34 34 49
52 32 38 95 82 117 82 9 0 34 -12 56 -27z m2590 -23 c-11 -5 -27 -9 -35 -9 -9
0 -8 4 5 9 11 5 27 9 35 9 9 0 8 -4 -5 -9z m-65 -24 c0 -2 -7 -7 -16 -10 -8
-3 -12 -2 -9 4 6 10 25 14 25 6z m-2017 -31 c54 -20 68 -22 74 -11 5 9 15 11
28 5 19 -7 18 -8 -4 -8 -23 -1 -23 -1 7 -29 l31 -29 -70 1 c-71 1 -78 -1 -57
-22 7 -7 8 -12 2 -12 -5 0 -15 5 -22 12 -9 9 -7 17 11 37 19 21 19 23 4 18
-13 -5 -27 1 -45 21 -15 16 -34 31 -42 35 -13 4 -12 6 1 6 9 1 46 -10 82 -24z
m3673 -22 c-10 -10 -19 5 -10 18 6 11 8 11 12 0 2 -7 1 -15 -2 -18z m-2066
-48 c0 -8 -9 -15 -20 -15 -20 0 -26 11 -13 23 12 13 33 7 33 -8z m-1415 -15
c12 -13 14 -20 5 -20 -10 0 -10 -3 0 -15 13 -16 2 -24 -32 -22 -22 1 -23 11
-2 31 8 9 11 16 5 16 -6 0 -11 7 -11 15 0 21 13 19 35 -5z m45 10 c0 -5 -4
-10 -10 -10 -5 0 -10 5 -10 10 0 6 5 10 10 10 6 0 10 -4 10 -10z m-100 -40 c0
-5 -4 -10 -9 -10 -6 0 -13 5 -16 10 -3 6 1 10 9 10 9 0 16 -4 16 -10z m1460
-8 c0 -4 -9 -13 -20 -20 -16 -10 -20 -10 -20 1 0 8 3 17 7 20 9 9 33 9 33 -1z
m65 -2 c-7 -12 -45 -14 -45 -2 0 4 11 9 26 10 14 1 23 -2 19 -8z m-1405 -10
c0 -5 -4 -10 -10 -10 -5 0 -10 5 -10 10 0 6 5 10 10 10 6 0 10 -4 10 -10z m85
0 c3 -5 1 -10 -4 -10 -6 0 -11 5 -11 10 0 6 2 10 4 10 3 0 8 -4 11 -10z m-25
-30 c0 -5 -5 -10 -11 -10 -5 0 -7 5 -4 10 3 6 8 10 11 10 2 0 4 -4 4 -10z
m1311 -17 c8 2 10 2 6 -1 -4 -2 -3 -10 4 -18 17 -21 2 -30 -18 -12 -10 8 -27
18 -38 23 l-20 7 20 8 c11 4 23 3 26 -2 3 -5 12 -7 20 -5z m-1255 -8 c4 -8 17
-15 31 -15 22 0 83 -25 83 -34 0 -3 -3 -12 -6 -21 -5 -11 -9 -13 -14 -5 -3 6
-14 8 -24 4 -14 -5 -15 -9 -5 -15 8 -4 10 -11 6 -15 -4 -4 -16 2 -27 14 l-21
22 26 0 c16 0 25 6 25 15 0 9 -9 15 -25 15 -14 0 -25 -4 -25 -9 0 -16 -40 0
-55 22 -11 16 -12 23 -2 29 18 12 27 10 33 -7z m-239 -1 c-3 -3 -12 -4 -19 -1
-8 3 -5 6 6 6 11 1 17 -2 13 -5z m115 -5 c20 -11 21 -12 4 -25 -10 -7 -15 -17
-12 -23 11 -18 34 -1 40 30 3 18 12 29 22 29 12 0 14 -4 7 -12 -5 -7 -6 -26
-2 -43 3 -16 7 -24 8 -17 2 18 31 15 31 -3 0 -9 12 -20 27 -26 44 -16 13 -30
-51 -23 -39 5 -60 12 -64 23 -3 9 -17 26 -30 37 -18 16 -22 27 -17 43 7 24 9
25 37 10z m308 -39 c0 -5 -4 -10 -10 -10 -5 0 -10 5 -10 10 0 6 5 10 10 10 6
0 10 -4 10 -10z m-2518 -50 c25 0 24 -66 -3 -155 -12 -39 -22 -82 -22 -98 0
-15 -1 -26 -1 -25 -1 2 -10 16 -20 32 -16 25 -16 28 -3 23 14 -5 15 -2 6 19
-5 14 -7 29 -4 34 3 4 -2 11 -11 14 -8 3 -12 11 -8 17 4 8 3 9 -5 5 -6 -4 -9
-12 -6 -17 4 -5 -4 -9 -16 -9 -12 0 -32 -8 -43 -17 -13 -12 -17 -13 -10 -3 7
8 15 26 19 40 14 47 89 160 99 150 6 -6 18 -10 28 -10z m3378 -25 c0 -8 -4
-15 -10 -15 -5 0 -10 7 -10 15 0 8 5 15 10 15 6 0 10 -7 10 -15z m-3960 -38
c11 3 20 4 20 2 0 -3 9 -29 20 -59 11 -30 20 -67 20 -82 0 -14 6 -28 13 -31 6
-2 9 -8 5 -12 -7 -7 -78 61 -78 75 0 4 -7 7 -15 7 -8 0 -15 -7 -15 -14 0 -8
-4 -11 -10 -8 -5 3 -10 43 -10 88 1 77 2 80 15 55 11 -19 20 -25 35 -21z
m3129 -9 c-1 -19 -69 -73 -69 -55 0 15 47 67 61 67 5 0 9 -6 8 -12z m831 -12
c0 -14 -4 -28 -10 -31 -6 -4 -10 7 -10 24 0 17 5 31 10 31 6 0 10 -11 10 -24z
m-367 -13 c-7 -2 -19 -2 -25 0 -7 3 -2 5 12 5 14 0 19 -2 13 -5z m421 -25 c3
-18 2 -49 -2 -68 l-8 -34 -10 47 c-8 34 -8 47 0 47 6 0 5 4 -3 9 -7 5 -10 14
-7 20 13 20 24 12 30 -21z m-481 15 c-7 -2 -19 -2 -25 0 -7 3 -2 5 12 5 14 0
19 -2 13 -5z m430 -374 c5 -61 1 -72 -25 -82 -24 -8 -33 9 -11 22 15 8 17 25
15 143 -1 73 -4 154 -8 180 -3 26 -2 53 3 60 4 8 11 -46 15 -127 3 -77 9 -165
11 -196z m921 325 c11 -4 16 -19 16 -46 0 -35 -2 -39 -22 -36 -39 5 -60 88
-23 88 7 0 20 -3 29 -6z m-1344 -39 c0 -12 -15 -15 -74 -15 -69 0 -95 8 -79
24 3 3 39 6 80 6 58 0 73 -3 73 -15z m1160 -5 c0 -21 -10 -24 -47 -14 -37 10
-28 34 12 34 28 0 35 -4 35 -20z m-930 -14 c0 -18 -176 -34 -193 -17 -12 12 1
18 53 24 88 10 140 7 140 -7z m1265 -46 c0 -11 -13 -16 -49 -18 -50 -3 -74 7
-61 28 11 17 110 9 110 -10z m1108 2 c38 -42 40 -103 2 -72 -12 10 -15 9 -15
-4 0 -21 -18 -21 -22 0 -2 12 -14 17 -41 18 -35 1 -37 -1 -32 -21 4 -18 1 -23
-14 -23 -13 0 -18 5 -15 14 4 11 -8 14 -61 13 -54 -2 -70 1 -78 15 -6 9 -9 19
-6 22 7 7 211 54 240 55 14 1 33 -7 42 -17z m-1050 -23 c-7 -7 -19 -8 -30 -4
-16 7 -15 9 7 15 30 8 38 4 23 -11z m-855 -16 c-10 -2 -28 -2 -40 0 -13 2 -5
4 17 4 22 1 32 -1 23 -4z m55 0 c-7 -2 -19 -2 -25 0 -7 3 -2 5 12 5 14 0 19
-2 13 -5z m777 -23 c0 -5 -7 -10 -15 -10 -8 0 -15 5 -15 10 0 6 7 10 15 10 8
0 15 -4 15 -10z m-1420 -19 c5 -11 10 -29 10 -41 0 -19 -4 -21 -27 -15 -16 3
-30 11 -31 16 -2 5 -7 7 -12 4 -4 -3 -6 5 -2 17 10 41 44 51 62 19z m1574 3
c9 -25 7 -102 -4 -109 -5 -3 -7 -12 -3 -20 3 -8 6 -41 8 -73 4 -80 4 -82 14
-82 5 0 7 8 4 18 -2 10 2 24 11 31 13 11 17 6 27 -28 14 -48 9 -57 -20 -39
-18 11 -23 11 -31 -2 -5 -8 -10 -25 -10 -37 0 -28 -16 -30 -25 -3 -3 11 -11
20 -16 20 -5 0 -9 7 -9 16 0 8 5 12 10 9 6 -3 10 -1 10 4 0 6 -7 11 -16 11
-11 0 -14 5 -10 16 3 9 6 20 6 26 0 6 6 5 15 -2 9 -7 18 -10 22 -6 9 8 -24 76
-37 76 -5 0 -10 7 -10 15 0 18 16 20 24 3 6 -13 3 21 -10 114 -6 47 -4 49 37
57 4 0 10 -6 13 -15z m-1204 -14 c0 -5 -4 -10 -10 -10 -5 0 -10 5 -10 10 0 6
5 10 10 10 6 0 10 -4 10 -10z m3 -40 c-3 -11 -7 -20 -8 -20 -1 0 -5 9 -8 20
-3 12 0 20 8 20 8 0 11 -8 8 -20z m1357 10 c0 -5 -2 -10 -4 -10 -3 0 -8 5 -11
10 -3 6 -1 10 4 10 6 0 11 -4 11 -10z m209 -36 c12 -20 20 -38 17 -41 -4 -5
-56 60 -56 70 0 18 20 3 39 -29z m636 -8 c0 -18 -6 -31 -15 -33 -12 -4 -12 -3
-2 5 22 15 -13 23 -46 11 -15 -6 -28 -10 -30 -9 -3 2 -114 -21 -132 -27 -33
-12 -100 -14 -100 -3 0 13 14 18 60 23 19 3 42 7 50 10 57 24 169 55 190 54
21 -2 25 -7 25 -31z m-1596 0 c14 -17 2 -97 -14 -97 -5 0 -14 19 -18 41 -12
62 4 90 32 56z m91 -50 c0 -51 -1 -53 -25 -48 -23 4 -25 9 -25 53 0 46 2 49
25 49 24 0 25 -3 25 -54z m748 19 c-1 -2 -12 -5 -23 -7 -11 -1 -22 -8 -25 -15
-3 -7 -10 -9 -18 -4 -9 5 -1 15 25 32 29 18 39 21 41 11 2 -7 2 -15 0 -17z
m-1449 -32 l-2 -58 -7 50 c-7 47 -5 65 6 65 2 0 3 -26 3 -57z m2315 -15 c-9
-14 -34 -9 -34 6 0 8 -3 22 -6 30 -4 12 1 10 19 -6 14 -12 23 -26 21 -30z
m-2928 12 c62 -31 113 -75 100 -87 -3 -4 -27 3 -51 15 -51 25 -55 26 -55 13 0
-5 22 -25 49 -45 50 -35 128 -138 134 -175 2 -11 6 -23 10 -27 3 -4 4 -11 1
-16 -7 -11 -44 20 -44 37 0 15 -95 105 -110 105 -5 0 -10 -2 -10 -4 0 -2 -3
-11 -6 -20 -4 -11 -1 -16 10 -16 9 0 16 -4 16 -10 0 -15 -16 -12 -30 5 -7 8
-19 15 -26 15 -8 0 -14 7 -14 15 0 8 9 15 20 15 19 0 19 1 3 20 -10 11 -23 20
-30 20 -6 0 -18 6 -25 13 -7 7 -43 27 -80 46 -36 18 -69 40 -72 48 -10 24 13
43 50 43 18 0 36 5 39 10 11 18 61 10 121 -20z m732 -13 c-5 -34 -28 -33 -28
2 0 23 4 29 16 24 8 -3 14 -15 12 -26z m896 1 c9 -43 2 -93 -14 -95 -26 -5
-37 11 -44 65 l-7 52 30 0 c24 0 32 -5 35 -22z m-136 -12 c2 -10 -1 -23 -7
-29 -15 -15 -46 16 -37 38 8 21 40 15 44 -9z m477 14 c3 -5 1 -10 -4 -10 -6 0
-11 5 -11 10 0 6 2 10 4 10 3 0 8 -4 11 -10z m-2316 -29 c18 -14 24 -29 26
-75 4 -53 2 -58 -21 -66 -35 -14 -44 -12 -44 5 0 9 -9 15 -25 15 -14 0 -34 9
-45 20 -11 11 -29 20 -39 20 -25 0 -34 15 -27 45 11 45 131 70 175 36z m2775
3 c13 -34 7 -54 -18 -54 -14 0 -28 -4 -31 -10 -3 -5 -12 -10 -20 -10 -15 0
-30 33 -17 38 6 2 23 14 39 28 33 28 39 29 47 8z m393 -83 c7 -9 12 -27 12
-41 0 -24 -1 -23 -13 6 -14 32 -36 53 -36 35 0 -13 -55 -24 -81 -16 -19 6 -15
10 27 25 52 18 71 16 91 -9z m-1499 -20 c5 -47 -14 -63 -39 -32 -10 13 -19 34
-19 48 0 21 4 24 28 21 23 -3 28 -8 30 -37z m-1060 1 c2 -16 -3 -25 -20 -31
-31 -12 -38 -6 -38 30 0 27 3 30 28 27 19 -2 28 -9 30 -26z m2534 -14 c-7 -7
-12 -8 -12 -2 0 14 12 26 19 19 2 -3 -1 -11 -7 -17z m-132 2 c0 -5 -7 -10 -16
-10 -8 0 -12 5 -9 10 3 6 10 10 16 10 5 0 9 -4 9 -10z m-1530 -40 c0 -23 -5
-30 -19 -30 -20 0 -37 32 -26 50 3 5 15 10 26 10 14 0 19 -7 19 -30z m1455 20
c-11 -5 -29 -9 -40 -9 l-20 0 20 9 c11 5 29 9 40 9 l20 0 -20 -9z m-2777 -36
c87 -49 134 -89 169 -143 19 -29 33 -55 31 -56 -2 -2 -26 13 -53 34 -51 38
-100 66 -170 96 -50 22 -85 53 -85 77 0 27 52 23 108 -8z m572 -3 c0 -15 -29
-21 -55 -11 -36 14 -31 20 15 20 22 0 40 -4 40 -9z m1705 -1 c-3 -5 -17 -10
-31 -10 -13 0 -24 5 -24 10 0 6 14 10 31 10 17 0 28 -4 24 -10z m-2844 -29
c18 -15 21 -22 13 -31 -14 -14 -64 14 -64 36 0 20 24 17 51 -5z m2442 -46 c-1
-27 -2 -53 -2 -57 -2 -13 -31 -9 -36 5 -2 6 -6 34 -10 60 l-6 48 28 -3 c27 -3
28 -5 26 -53z m-3273 35 c52 -10 94 -35 85 -50 -3 -5 -25 -2 -50 5 -39 12 -45
12 -45 -1 0 -8 7 -17 15 -20 46 -18 -8 -26 -115 -17 -41 4 -50 7 -37 15 10 5
25 7 35 4 10 -4 27 1 38 10 19 15 19 16 0 9 -19 -6 -19 -5 -3 13 9 10 17 24
17 30 0 14 -5 14 60 2z m3092 -39 c3 -3 8 -24 10 -46 l3 -40 -52 -3 -53 -3 0
49 c0 27 3 52 7 55 7 8 74 -2 85 -12z m-582 -1 c0 -5 -4 -10 -10 -10 -5 0 -10
5 -10 10 0 6 5 10 10 10 6 0 10 -4 10 -10z m-2415 -50 c17 -7 17 -9 3 -9 -9
-1 -29 -13 -43 -28 -24 -27 -29 -28 -117 -26 -61 1 -94 6 -99 15 -6 9 -14 7
-32 -10 -24 -23 -77 -30 -77 -11 0 6 7 8 17 5 10 -4 24 2 36 15 16 17 28 20
66 16 75 -8 105 -13 129 -21 18 -6 29 -1 55 28 35 39 34 38 62 26z m355 -7
c-19 -8 -44 -17 -55 -20 -23 -6 -178 -4 -184 3 -12 12 19 17 120 20 61 2 114
5 117 8 3 4 12 6 21 5 9 0 0 -7 -19 -16z m1480 -153 c0 -4 11 -12 24 -18 21
-9 23 -8 19 8 -3 10 0 20 5 24 12 7 25 -22 16 -36 -3 -5 4 -19 17 -31 15 -14
24 -17 27 -9 2 7 9 12 15 12 8 0 7 -4 -1 -12 -9 -9 -7 -17 9 -34 l20 -22 -22
-15 c-21 -15 -24 -14 -69 34 -25 27 -52 49 -59 49 -7 0 -10 4 -6 9 5 9 -22 30
-35 28 -3 0 -14 4 -25 11 -11 6 -15 12 -9 12 5 0 14 -3 20 -7 5 -5 -1 2 -14
15 -13 12 -30 22 -38 22 -8 0 -13 4 -10 9 7 10 -18 33 -27 26 -4 -3 -5 -2 -2
2 3 3 -4 17 -16 29 -12 12 -18 27 -15 33 7 10 176 -124 176 -139z m176 99 c2
-27 1 -28 -3 -6 -2 15 -9 25 -14 22 -5 -4 -9 1 -9 10 0 32 25 8 26 -26z
m-2401 11 c-3 -5 -11 -10 -16 -10 -6 0 -7 5 -4 10 3 6 11 10 16 10 6 0 7 -4 4
-10z m549 -21 c-5 -9 -34 -13 -34 -5 0 2 3 12 6 20 5 13 9 14 20 5 8 -6 11
-15 8 -20z m2401 13 c0 -18 -20 -15 -23 4 -3 10 1 15 10 12 7 -3 13 -10 13
-16z m277 7 c21 -13 -13 -20 -77 -17 -36 2 -60 8 -63 16 -3 9 13 12 62 10 36
-1 71 -5 78 -9z m-3292 -18 c0 -13 -39 -21 -47 -9 -3 6 -2 8 3 5 6 -3 16 -2
24 4 19 11 20 11 20 0z m-1274 -9 c5 -5 45 -6 89 -3 44 3 117 4 163 1 l83 -5
-1 -403 c-1 -395 -4 -462 -21 -462 -12 0 -11 24 1 36 7 7 9 44 7 90 l-3 79 -2
-82 c-1 -47 -6 -83 -12 -83 -5 0 -10 18 -10 40 0 22 -4 40 -10 40 -5 0 -10
-10 -10 -22 0 -12 -3 -18 -7 -15 -14 14 -33 231 -39 455 -6 202 -9 232 -23
233 -12 1 -12 2 2 6 11 3 16 11 13 19 -3 8 -1 14 5 14 6 0 8 4 5 9 -8 13 -116
21 -334 26 -101 2 -187 7 -190 10 -4 4 39 5 96 3 56 -2 102 0 102 5 0 5 14 7
30 5 17 -3 33 -1 36 4 7 10 17 10 30 0z m3932 -28 c-4 -23 -26 -30 -34 -10 -8
20 15 51 29 37 5 -5 7 -17 5 -27z m-2818 16 c8 -5 11 -10 5 -10 -5 0 -17 5
-25 10 -8 5 -10 10 -5 10 6 0 17 -5 25 -10z m1600 -16 c0 -8 -3 -14 -7 -14
-13 1 -43 27 -37 32 10 10 44 -4 44 -18z m550 16 c0 -5 -4 -10 -10 -10 -5 0
-10 5 -10 10 0 6 5 10 10 10 6 0 10 -4 10 -10z m785 -20 c-5 -8 -11 -8 -17 -2
-6 6 -7 16 -3 22 5 8 11 8 17 2 6 -6 7 -16 3 -22z m-2545 -3 c-27 -25 -70 -41
-70 -26 0 5 11 11 25 15 13 3 29 12 36 20 6 8 16 14 23 14 6 0 0 -10 -14 -23z
m116 8 c-10 -8 -23 -12 -28 -9 -14 9 2 24 25 24 21 -1 21 -1 3 -15z m2772 -6
c-2 -6 -7 -10 -11 -10 -4 1 -21 1 -38 1 -17 0 -28 4 -24 10 8 14 78 13 73 -1z
m102 -4 c0 -8 -4 -15 -9 -15 -5 0 -11 7 -15 15 -3 9 0 15 9 15 8 0 15 -7 15
-15z m-2870 -36 c-8 -5 -29 -8 -46 -7 -18 1 -38 -3 -45 -8 -19 -15 -59 -24
-59 -13 0 5 6 9 14 9 8 0 17 7 20 16 5 12 14 14 45 9 22 -4 48 -2 58 3 22 13
33 5 13 -9z m217 15 c-3 -3 -12 -4 -19 -1 -8 3 -5 6 6 6 11 1 17 -2 13 -5z
m115 -26 c-7 -7 -12 -8 -12 -2 0 14 12 26 19 19 2 -3 -1 -11 -7 -17z m2285 16
c-3 -3 -12 -4 -19 -1 -8 3 -5 6 6 6 11 1 17 -2 13 -5z m153 -4 c0 -5 -5 -10
-11 -10 -5 0 -7 5 -4 10 3 6 8 10 11 10 2 0 4 -4 4 -10z m388 -6 c60 -26 67
-30 70 -48 4 -20 -21 -21 -38 -1 -16 19 -68 45 -92 45 -11 0 -16 5 -13 10 9
14 31 12 73 -6z m-1351 -66 c38 -23 85 -52 106 -62 20 -11 37 -23 37 -28 0 -5
-9 -4 -19 2 -14 7 -21 6 -23 -2 -3 -9 -29 -5 -94 14 -49 14 -116 31 -149 38
-33 7 -64 14 -70 16 -19 7 181 -7 219 -16 22 -5 35 -5 30 0 -11 11 -87 55
-131 75 -18 8 -33 17 -33 19 0 12 67 -17 127 -56z m628 -11 c0 -26 -20 -25
-23 2 -3 16 1 22 10 19 7 -3 13 -12 13 -21z m215 13 c0 -5 -5 -10 -11 -10 -5
0 -7 5 -4 10 3 6 8 10 11 10 2 0 4 -4 4 -10z m-674 -48 c-3 -2 -15 2 -28 9
-12 7 -27 12 -31 11 -5 -1 -6 2 -2 8 4 7 16 4 35 -7 16 -9 28 -19 26 -21z
m159 20 c11 -3 43 -20 71 -38 l52 -32 11 24 c6 14 16 22 21 19 15 -9 12 -33
-6 -43 -14 -8 -12 -12 11 -30 34 -27 45 -28 38 -3 -7 28 7 32 117 37 97 4 100
4 115 -20 23 -35 12 -46 -46 -46 -27 0 -49 -5 -49 -10 0 -17 62 -80 79 -80 14
0 14 2 1 11 -12 9 -11 10 5 4 11 -4 38 -9 61 -12 39 -5 40 -7 30 -28 -6 -12
-16 -20 -23 -18 -7 3 -13 0 -13 -6 0 -6 13 -11 28 -11 28 0 72 -37 72 -60 0
-6 23 -25 50 -42 50 -31 62 -42 35 -32 -10 4 -15 0 -15 -10 0 -9 8 -20 18 -23
13 -5 9 -9 -18 -15 -33 -7 -38 -4 -72 35 -20 23 -34 45 -32 49 3 5 1 8 -5 8
-6 0 -17 -13 -25 -29 -8 -15 -26 -36 -40 -45 -26 -16 -26 -16 -14 9 6 14 18
25 27 25 13 0 13 3 -2 18 -11 10 -20 13 -25 7 -4 -6 -19 -12 -34 -13 -23 -3
-28 1 -28 18 0 12 -9 24 -22 29 -13 5 -40 24 -61 43 -21 19 -55 40 -77 47 -21
6 -62 27 -90 46 -29 19 -54 35 -57 35 -2 0 -19 15 -37 33 -17 18 -43 41 -56
50 -21 15 -23 19 -10 27 12 8 12 10 1 10 -9 0 -12 8 -9 24 4 20 0 26 -19 31
-13 3 -21 10 -17 16 3 6 13 7 23 4 9 -4 25 -10 36 -13z m425 14 c0 -34 -35
-48 -37 -16 -1 14 4 20 18 20 10 0 19 -2 19 -4z m610 -19 c0 -25 -42 -72 -53
-61 -4 4 1 13 11 20 16 12 15 14 -8 31 l-25 18 30 6 c17 4 33 7 38 8 4 0 7 -9
7 -22z m-313 -23 c-9 -9 -28 6 -21 18 4 6 10 6 17 -1 6 -6 8 -13 4 -17z m-87
-10 c0 -9 -7 -14 -17 -12 -25 5 -28 28 -4 28 12 0 21 -6 21 -16z m528 -6 c18
-18 15 -38 -5 -38 -28 0 -47 16 -40 34 8 19 28 21 45 4z m-1527 -17 c65 -22
138 -62 198 -108 35 -26 47 -31 58 -21 11 8 17 8 26 -1 9 -10 8 -11 -7 -5 -14
5 -17 3 -14 -7 3 -8 11 -13 17 -11 6 1 11 -5 11 -13 0 -8 3 -14 8 -12 4 1 7
-2 7 -8 0 -11 -5 -10 -45 1 -36 10 -15 -9 45 -41 30 -16 50 -33 50 -43 0 -9 2
-16 5 -15 42 14 63 14 78 -1 11 -11 13 -19 6 -26 -7 -7 -8 -26 -3 -53 4 -23 8
-45 9 -49 0 -13 58 -9 62 4 2 6 10 8 16 4 7 -4 12 -34 12 -77 0 -44 -4 -68
-10 -64 -5 3 -10 27 -10 54 l0 47 -37 2 c-40 3 -57 19 -73 72 -7 19 -13 41
-16 48 -3 10 -8 9 -21 -4 -10 -10 -13 -19 -7 -21 7 -2 8 -22 3 -56 -3 -28 -5
-55 -2 -59 2 -5 0 -8 -6 -8 -6 0 -7 22 -4 55 5 49 3 57 -17 75 -13 11 -20 23
-17 26 3 4 -1 13 -9 22 -14 13 -17 13 -25 1 -5 -8 -9 -9 -10 -4 0 6 -4 1 -9
-10 -8 -19 -9 -19 -9 3 -1 12 -4 22 -8 22 -5 0 -6 -25 -5 -55 3 -35 0 -55 -7
-55 -6 0 -11 -7 -11 -15 0 -8 5 -15 10 -15 6 0 10 -6 10 -13 0 -9 -12 -11 -39
-9 -35 4 -39 1 -45 -24 -4 -16 -13 -32 -19 -36 -7 -4 -7 -8 -2 -8 13 0 11 -73
-2 -77 -6 -2 -14 21 -18 52 -3 30 -9 55 -13 56 -4 0 -15 2 -25 4 -9 2 -15 -1
-11 -6 3 -5 1 -9 -4 -9 -5 0 -7 -18 -5 -39 2 -22 -1 -42 -7 -46 -16 -10 -20
-3 -24 49 -2 25 -10 54 -17 63 -8 9 -14 25 -14 36 0 11 -6 22 -14 25 -8 2 -11
0 -8 -5 3 -5 1 -15 -4 -23 -8 -13 -10 -13 -18 0 -5 8 -8 18 -5 22 3 4 -13 11
-36 14 l-40 7 -1 51 c-1 28 0 63 1 77 1 21 -5 29 -27 37 -23 9 -11 11 65 11
50 1 92 5 92 10 0 5 9 11 20 14 12 3 20 0 20 -8 0 -7 10 -11 27 -9 15 1 32 -4
37 -11 14 -18 66 -31 66 -16 0 16 27 13 34 -4 6 -18 32 -20 42 -4 4 7 -1 16
-10 21 -12 7 -16 17 -12 32 5 19 -5 31 -57 69 -34 26 -102 67 -152 92 -100 50
-103 54 -24 26z m-196 -1 c-3 -5 -10 -10 -16 -10 -5 0 -9 5 -9 10 0 6 7 10 16
10 8 0 12 -4 9 -10z m453 -2 c16 -16 15 -23 -4 -43 -15 -15 -18 -15 -35 1 -28
25 -23 37 6 18 21 -13 25 -14 25 -2 0 8 -5 19 -12 26 -7 7 -8 12 -2 12 6 0 15
-5 22 -12z m1656 -67 c-87 -87 -76 -82 -294 -121 -91 -16 -195 -46 -216 -62
-7 -5 -17 1 -28 16 -19 30 -14 34 47 34 26 -1 50 2 53 5 8 8 -31 55 -80 95
-24 20 -32 32 -22 32 9 0 44 -25 77 -56 l62 -57 75 7 c86 8 166 27 210 50 37
19 49 36 27 36 -21 0 -11 16 14 23 14 3 18 1 14 -10 -8 -21 20 -4 77 46 77 69
68 45 -16 -38z m-906 58 c-2 -6 -8 -10 -13 -10 -5 0 -11 4 -13 10 -2 6 4 11
13 11 9 0 15 -5 13 -11z m92 2 c0 -6 -4 -13 -10 -16 -5 -3 -10 1 -10 9 0 9 5
16 10 16 6 0 10 -4 10 -9z m720 -41 c0 -5 -5 -10 -11 -10 -5 0 -7 5 -4 10 3 6
8 10 11 10 2 0 4 -4 4 -10z m-322 -11 c-2 -6 -8 -10 -13 -10 -5 0 -11 4 -13
10 -2 6 4 11 13 11 9 0 15 -5 13 -11z m-1258 -24 c11 -13 10 -14 -4 -9 -9 3
-16 10 -16 15 0 13 6 11 20 -6z m2815 -35 c3 -5 -1 -10 -9 -10 -9 0 -16 5 -16
10 0 6 4 10 9 10 6 0 13 -4 16 -10z m-2955 -16 c0 -2 -7 -4 -15 -4 -8 0 -15 4
-15 10 0 5 7 7 15 4 8 -4 15 -8 15 -10z m870 -24 c0 -11 -7 -20 -15 -20 -18 0
-19 12 -3 28 16 16 18 15 18 -8z m220 -3 c0 -9 -22 -13 -75 -15 -41 -1 -75 2
-75 7 0 13 25 18 93 20 40 1 57 -3 57 -12z m694 -13 c3 -8 0 -14 -7 -14 -8 0
-6 -4 3 -10 13 -8 13 -10 -2 -10 -17 0 -48 25 -48 40 0 23 45 18 54 -6z
m-5235 7 c10 -6 13 -39 12 -138 -2 -119 -5 -138 -35 -229 -44 -128 -67 -188
-79 -195 -4 -3 -10 -19 -12 -34 -3 -34 -34 -62 -47 -42 -4 6 -8 132 -8 280 0
148 -4 267 -9 267 -5 0 -11 8 -13 18 -4 12 -26 25 -64 37 -32 11 -62 18 -66
17 -9 -2 -11 12 -2 20 9 10 308 9 323 -1z m5107 -49 c-9 -10 -43 -27 -75 -38
-33 -10 -57 -22 -55 -26 7 -10 -12 -19 -29 -12 -9 3 -13 12 -10 20 3 9 0 14
-7 12 -7 -2 -15 3 -17 10 -4 10 7 13 38 12 24 -1 69 8 99 19 69 25 77 26 56 3z
m-1154 -14 c-7 -7 -12 -8 -12 -2 0 14 12 26 19 19 2 -3 -1 -11 -7 -17z m611
-13 c-16 -23 -23 -25 -67 -21 -83 9 -78 24 10 32 33 4 61 8 63 10 13 12 10 1
-6 -21z m-3739 -6 c20 -20 26 -249 8 -271 -15 -19 -4 -30 51 -53 36 -15 48
-10 27 11 -6 6 -6 23 1 49 21 77 58 93 225 95 183 3 171 5 184 -36 14 -41 -2
-153 -28 -192 -14 -22 -18 -22 -158 -20 -79 2 -144 6 -144 11 0 4 -4 7 -9 7
-5 0 -9 -17 -9 -37 0 -21 -3 -94 -7 -162 -7 -105 -6 -126 7 -135 11 -8 58 -9
153 -4 181 10 193 8 209 -22 74 -140 129 -266 130 -297 1 -47 2 -47 -262 -63
-201 -13 -212 -13 -232 5 -11 10 -20 24 -20 32 0 7 -11 13 -24 13 -23 0 -24 4
-31 88 -3 48 -11 100 -18 116 -8 23 -8 31 1 34 14 4 17 82 3 82 -5 0 -9 40 -9
90 0 89 0 90 -34 123 -30 29 -43 34 -128 45 -132 18 -261 42 -286 54 -11 5
-24 8 -30 7 -20 -3 -41 2 -59 14 -17 13 -17 15 1 45 10 18 25 33 34 33 42 4
58 7 68 13 6 3 15 -1 20 -10 9 -16 18 -16 137 -1 70 9 130 19 133 22 17 17
-30 28 -135 33 -157 6 -153 2 -153 152 0 82 4 121 13 128 19 16 70 20 220 18
104 -2 141 -6 151 -17z m3866 -3 c0 -8 -28 -40 -62 -71 -61 -56 -132 -97 -173
-99 -16 -1 -19 -7 -17 -33 3 -27 0 -31 -15 -27 -11 3 -25 14 -32 25 -18 30 0
46 59 54 27 4 49 10 49 13 -3 22 3 30 21 25 15 -4 37 12 87 61 70 68 83 76 83
52z m198 -31 c-2 -6 -9 -9 -15 -9 -7 1 -13 -2 -13 -7 0 -5 -9 -9 -19 -9 -11 0
-23 -5 -26 -11 -4 -5 -12 -8 -18 -6 -7 2 -18 -2 -25 -10 -8 -8 -23 -11 -38 -7
-13 3 -24 2 -24 -3 0 -5 -6 -17 -13 -27 -10 -14 -18 -15 -40 -7 -36 14 -34 28
6 37 42 10 37 9 77 26 19 9 51 19 70 23 19 4 42 11 50 16 18 10 33 7 28 -6z
m1142 -20 c0 -29 0 -29 -35 -13 -29 13 -32 25 -7 31 35 9 42 7 42 -18z m-3169
-11 c7 -8 21 -13 31 -11 10 3 31 -1 46 -9 15 -8 40 -14 56 -14 33 0 55 -24 56
-60 0 -16 14 -39 38 -61 46 -45 77 -56 90 -33 8 14 11 6 17 -34 6 -43 11 -53
30 -58 21 -5 22 -9 14 -37 -5 -17 -5 -33 -1 -36 37 -26 51 -40 64 -68 10 -20
12 -33 6 -35 -6 -2 -4 -10 5 -19 10 -11 12 -20 5 -32 -5 -9 -5 -17 -1 -17 5 0
9 -10 10 -22 1 -11 7 -24 14 -28 6 -4 9 -12 5 -18 -3 -6 -2 -13 3 -16 5 -4 9
-46 8 -94 0 -49 3 -94 7 -100 4 -6 2 -21 -4 -32 -7 -13 -7 -20 0 -20 5 0 10
-13 10 -30 0 -16 -5 -30 -11 -30 -5 0 -7 -5 -4 -10 9 -14 12 -120 4 -120 -14
0 -16 -52 -2 -66 10 -9 10 -14 3 -14 -8 0 -10 -9 -6 -25 5 -18 2 -25 -9 -25
-21 0 -19 -20 3 -21 10 0 12 -3 5 -6 -7 -2 -13 -13 -13 -24 0 -11 -7 -22 -15
-25 -20 -8 -19 -20 5 -54 32 -45 104 -55 410 -55 146 0 315 3 375 7 99 7 107
6 80 -7 -16 -8 -38 -14 -48 -15 -10 0 -27 -5 -37 -10 -33 -18 -268 -59 -358
-63 -81 -4 -396 23 -486 41 -39 7 -63 32 -32 32 22 0 96 33 96 42 0 5 -6 8
-12 8 -7 0 -26 7 -41 15 -15 8 -34 12 -41 9 -22 -8 -27 12 -11 42 8 16 15 34
15 41 0 17 22 21 48 10 25 -11 44 -1 23 12 -9 6 -10 14 -5 22 10 17 6 59 -8
76 -6 8 -4 14 8 21 14 8 14 13 4 32 -14 25 1 43 27 33 11 -4 9 5 -6 33 -12 21
-21 49 -21 61 0 22 -16 40 -27 29 -4 -3 -7 -43 -7 -88 -1 -46 -7 -92 -13 -103
-6 -11 -14 -38 -18 -58 -4 -21 -14 -41 -21 -44 -8 -3 -14 -10 -14 -17 0 -18
-33 -42 -53 -38 -13 3 -17 12 -16 35 5 61 -1 83 -29 114 -22 23 -33 28 -45 21
-38 -21 -75 30 -44 61 10 10 9 11 -5 6 -15 -6 -18 -1 -18 30 0 20 -7 43 -15
51 -8 8 -20 23 -27 32 -17 23 -81 44 -110 37 -18 -4 -27 1 -43 24 -11 17 -29
32 -41 35 -23 6 -53 64 -38 74 17 13 34 52 34 77 0 81 -92 141 -160 105 -16
-9 -20 -5 -29 26 -14 50 -48 84 -84 84 -40 0 -83 -33 -90 -70 -4 -16 -11 -30
-17 -30 -13 0 -13 17 0 25 6 3 10 16 10 28 0 35 59 118 115 163 68 55 135 88
220 107 100 23 167 8 258 -58 37 -27 67 -52 67 -56 0 -4 7 -9 15 -13 10 -4 15
1 15 14 0 11 -4 20 -9 20 -5 0 -28 18 -52 40 -24 22 -55 43 -69 47 -14 3 -37
16 -53 29 -15 12 -46 25 -70 28 -83 10 -197 13 -197 4 0 -4 5 -8 11 -8 6 0 9
-6 7 -12 -3 -8 -24 -13 -54 -14 -63 -1 -132 -23 -113 -35 12 -8 12 -11 -1 -19
-8 -5 -22 -10 -31 -10 -9 0 -28 -11 -43 -25 -15 -14 -29 -25 -32 -25 -3 0 -17
-9 -32 -20 -17 -13 -35 -18 -45 -14 -28 11 -19 24 17 24 35 0 66 23 46 35 -17
10 -12 21 33 66 59 61 85 80 92 68 10 -14 25 0 18 17 -5 15 29 56 44 53 9 -2
34 6 78 26 48 21 66 26 125 32 30 3 57 9 58 14 6 15 38 10 53 -7z m3229 -20
c0 -8 -4 -12 -10 -9 -5 3 -10 10 -10 16 0 5 5 9 10 9 6 0 10 -7 10 -16z
m-2410 -20 c0 -8 -5 -12 -10 -9 -6 4 -8 11 -5 16 9 14 15 11 15 -7z m180 -19
c0 -8 -4 -15 -10 -15 -5 0 -10 7 -10 15 0 8 5 15 10 15 6 0 10 -7 10 -15z
m1490 2 c28 -10 36 -18 38 -41 4 -29 3 -29 -21 -13 -26 17 -88 20 -98 5 -8
-12 -66 17 -59 29 3 4 -23 11 -58 14 -34 3 -65 9 -69 12 -11 12 231 6 267 -6z
m-1260 -17 c13 -9 13 -11 0 -19 -10 -7 -17 -6 -22 2 -17 26 -5 35 22 17z
m-903 -37 c-3 -10 -5 -4 -5 12 0 17 2 24 5 18 2 -7 2 -21 0 -30z m430 15 c-3
-8 -6 -5 -6 6 -1 11 2 17 5 13 3 -3 4 -12 1 -19z m1193 2 c0 -5 -4 -10 -10
-10 -5 0 -10 5 -10 10 0 6 5 10 10 10 6 0 10 -4 10 -10z m-100 -9 c0 -5 -7
-11 -15 -15 -9 -3 -15 0 -15 9 0 8 7 15 15 15 8 0 15 -4 15 -9z m-67 -27 c-4
-12 -8 -13 -14 -3 -9 15 -2 32 11 24 5 -3 6 -13 3 -21z m399 9 c14 -13 18 -31
18 -95 0 -45 -4 -78 -10 -78 -5 0 -10 -4 -10 -10 0 -5 7 -10 15 -10 8 0 15 4
15 8 0 4 20 6 45 5 41 -2 45 -1 51 25 10 48 14 48 11 2 l-2 -45 58 -1 c47 -1
54 1 41 11 -12 8 -14 18 -9 35 l7 23 18 -23 c10 -13 16 -31 13 -39 -3 -9 1 -7
10 5 12 15 24 20 46 16 17 -2 31 -8 31 -13 0 -14 28 -11 33 4 4 8 8 9 14 1 12
-15 41 -24 45 -14 6 17 26 -5 32 -35 3 -17 3 -24 0 -17 -3 6 -12 12 -20 12 -9
0 -13 4 -9 9 3 6 -7 8 -22 6 -18 -2 -27 -8 -24 -16 2 -8 3 -24 3 -36 -2 -20 3
-23 36 -22 30 0 33 2 17 9 -18 8 -17 9 8 9 15 1 27 -3 27 -9 0 -15 117 -13
124 3 5 9 7 9 12 0 4 -8 46 -10 157 -6 84 3 153 7 155 8 2 2 -2 13 -8 25 -10
19 -19 21 -86 19 -41 -1 -77 1 -81 5 -9 9 28 35 50 36 10 0 28 5 40 11 12 7
19 8 15 4 -17 -18 15 -35 56 -29 31 4 37 3 26 -5 -13 -10 -11 -15 13 -36 15
-14 38 -26 50 -26 12 -1 31 -2 42 -3 11 -1 21 -8 23 -17 2 -14 -27 -17 -255
-23 -142 -3 -422 -11 -623 -16 -201 -5 -650 -14 -999 -20 -623 -10 -635 -10
-702 10 -37 11 -71 26 -75 32 -5 8 0 9 17 3 13 -4 160 -9 325 -12 l301 -5 -1
61 c-2 70 -16 92 -46 73 -10 -6 -27 -9 -36 -5 -9 3 -20 0 -24 -7 -10 -16 -40
-6 -40 15 0 8 9 15 20 15 12 0 20 7 20 16 0 13 7 15 33 10 17 -4 60 -9 95 -13
40 -3 65 -10 69 -19 3 -8 11 -14 19 -14 8 0 14 -4 14 -10 0 -5 -7 -10 -15 -10
-14 0 -17 -13 -17 -70 0 -11 0 -24 1 -29 1 -6 37 -10 81 -10 l80 0 1 27 c1 15
1 33 0 40 -1 7 5 22 14 34 8 13 15 17 15 11 0 -7 7 -10 15 -7 17 7 21 -11 5
-21 -6 -4 -8 -11 -5 -16 4 -5 -1 -9 -9 -9 -11 0 -16 -9 -16 -28 0 -25 4 -29
29 -30 26 -1 29 3 36 41 5 23 8 46 9 50 1 5 10 15 20 23 11 8 14 14 8 14 -10
0 -10 3 0 13 7 8 20 12 30 9 10 -2 18 0 18 6 0 5 7 13 16 16 13 5 15 2 11 -14
-4 -14 0 -20 11 -21 15 -1 15 -2 0 -6 -10 -2 -18 -13 -18 -24 0 -15 -6 -19
-27 -17 -25 3 -27 0 -31 -40 l-4 -43 176 2 176 2 0 43 c0 24 -4 44 -10 44 -5
0 -10 -4 -10 -9 0 -12 -49 -21 -56 -10 -2 4 -11 6 -19 3 -9 -4 -18 2 -23 17
-7 19 -10 20 -15 6 -5 -13 -19 -17 -61 -17 -46 0 -78 12 -65 25 10 9 208 12
218 2 7 -7 15 -6 25 3 9 7 26 10 41 6 23 -6 25 -3 25 24 0 16 -4 30 -10 30 -5
0 -7 7 -4 15 4 10 0 15 -14 15 -11 0 -23 6 -25 13 -3 6 -6 -5 -6 -25 -1 -47
-10 -68 -27 -68 -11 0 -14 16 -14 64 l0 64 35 12 c19 6 35 16 35 22 0 5 10 18
23 29 30 25 132 27 159 2z m258 7 c0 -5 -4 -10 -10 -10 -5 0 -10 5 -10 10 0 6
5 10 10 10 6 0 10 -4 10 -10z m-753 -6 c-3 -3 -12 -4 -19 -1 -8 3 -5 6 6 6 11
1 17 -2 13 -5z m1332 -22 c1 -9 4 -34 7 -54 7 -44 -6 -49 -62 -22 -25 12 -34
23 -34 40 0 15 6 24 15 24 8 0 24 9 35 20 23 23 38 19 39 -8z m-1499 -2 c0 -5
-4 -10 -10 -10 -5 0 -10 5 -10 10 0 6 5 10 10 10 6 0 10 -4 10 -10z m-400 -10
c10 -6 11 -10 3 -10 -7 0 -13 -8 -12 -17 0 -11 3 -13 6 -5 2 6 11 12 19 12 23
0 17 -56 -8 -74 -12 -9 -23 -15 -24 -13 -1 1 -4 21 -7 44 -2 24 -10 50 -17 58
-10 12 -9 15 6 15 11 0 26 -5 34 -10z m670 -10 c0 -5 -2 -10 -4 -10 -3 0 -8 5
-11 10 -3 6 -1 10 4 10 6 0 11 -4 11 -10z m-279 -30 c6 0 7 -4 4 -10 -12 -19
-32 -10 -29 13 3 31 6 34 11 15 2 -10 9 -18 14 -18z m-608 -94 c20 0 37 -4 37
-10 0 -6 5 -3 11 6 10 18 37 14 51 -6 5 -7 8 -4 8 7 0 12 8 17 28 17 22 0 27
-4 27 -25 0 -15 -6 -25 -15 -25 -12 -1 -11 -3 3 -11 21 -13 13 -29 -15 -29
-15 0 -19 5 -15 20 4 16 0 20 -19 20 -13 0 -24 5 -24 11 0 5 -4 7 -10 4 -15
-9 -12 -35 4 -35 8 0 18 -5 22 -11 4 -6 -1 -9 -12 -8 -11 2 -25 0 -31 -4 -8
-5 -13 -3 -13 3 0 22 -29 40 -63 40 l-34 0 -6 67 c-3 46 -1 70 6 75 8 5 14
-10 17 -50 l5 -57 38 1z m897 89 c0 -8 -7 -15 -15 -15 -9 0 -12 6 -9 15 4 8
10 15 15 15 5 0 9 -7 9 -15z m920 -16 c0 -6 -4 -7 -10 -4 -5 3 -10 11 -10 16
0 6 5 7 10 4 6 -3 10 -11 10 -16z m-1940 -34 c0 -18 -5 -25 -20 -25 -12 0 -20
7 -20 16 0 14 2 15 17 3 15 -13 16 -12 11 9 -4 12 -2 22 3 22 5 0 9 -11 9 -25z
m705 15 c-3 -5 -10 -10 -16 -10 -5 0 -9 5 -9 10 0 6 7 10 16 10 8 0 12 -4 9
-10z m-251 -9 c3 -5 -3 -11 -14 -14 -20 -5 -26 3 -13 16 9 10 21 9 27 -2z
m1383 -23 c-3 -7 -5 -2 -5 12 0 14 2 19 5 13 2 -7 2 -19 0 -25z m-3137 12 c0
-5 -6 -10 -14 -10 -8 0 -18 5 -21 10 -3 6 3 10 14 10 12 0 21 -4 21 -10z
m3640 -11 c0 -5 -9 -9 -20 -9 -19 0 -26 11 -14 23 8 8 34 -3 34 -14z m-1643
-4 c0 -8 -4 -15 -8 -15 -4 0 -9 7 -13 15 -3 9 0 15 8 15 7 0 13 -7 13 -15z
m67 -4 c10 -16 -5 -41 -25 -41 -22 0 -23 4 -9 31 11 20 25 25 34 10z m-101
-21 c3 -12 0 -20 -7 -20 -6 0 -12 9 -13 20 -1 11 2 20 6 20 5 0 11 -9 14 -20z
m2938 3 c54 -32 63 -104 13 -110 -30 -4 -114 63 -114 90 0 13 3 27 7 30 12 13
65 7 94 -10z m-1160 -9 c35 -12 49 -21 49 -35 0 -12 -5 -16 -15 -13 -8 4 -15
10 -15 14 0 4 -17 12 -37 17 -20 4 -38 14 -41 21 -5 16 -1 15 59 -4z m-2741
-9 c0 -8 -4 -15 -10 -15 -5 0 -10 7 -10 15 0 8 5 15 10 15 6 0 10 -7 10 -15z
m227 -25 c12 0 24 6 26 13 4 9 8 9 14 1 4 -7 21 -11 38 -10 21 1 31 -4 33 -17
3 -17 -4 -18 -105 -12 -124 7 -175 14 -168 25 2 4 27 5 54 2 48 -4 50 -4 44
19 l-6 24 25 -22 c13 -13 34 -23 45 -23z m777 15 c-4 -8 -7 -15 -9 -15 -2 0
-5 7 -9 15 -3 9 0 15 9 15 9 0 12 -6 9 -15z m-69 -4 c7 -12 -12 -24 -25 -16
-11 7 -4 25 10 25 5 0 11 -4 15 -9z m1533 2 c-10 -2 -28 -2 -40 0 -13 2 -5 4
17 4 22 1 32 -1 23 -4z m-153 -13 c3 -5 -1 -10 -10 -10 -9 0 -13 5 -10 10 3 6
8 10 10 10 2 0 7 -4 10 -10z m-1595 -9 c0 -5 -9 -11 -20 -14 -22 -6 -28 8 -7
16 19 8 27 8 27 -2z m-330 -21 c-20 -13 -40 -13 -40 0 0 6 12 10 28 10 21 0
24 -2 12 -10z m327 -37 c-11 -10 -26 8 -20 23 5 15 7 14 15 -1 6 -9 7 -19 5
-22z m228 27 c-3 -5 -10 -10 -16 -10 -5 0 -9 5 -9 10 0 6 7 10 16 10 8 0 12
-4 9 -10z m-1975 -5 c0 -13 -33 -55 -43 -55 -5 0 -15 -6 -21 -14 -6 -7 -23
-16 -38 -20 -22 -5 -26 -3 -22 9 4 8 10 15 15 15 5 0 8 6 7 12 -2 7 7 14 20
16 12 2 28 12 35 23 10 17 47 28 47 14z m2430 -5 c0 -5 -4 -10 -10 -10 -5 0
-10 5 -10 10 0 6 5 10 10 10 6 0 10 -4 10 -10z m-2346 -172 c7 -29 -8 -45 -28
-29 -12 10 -13 18 -5 32 13 25 25 24 33 -3z m4229 0 c-13 -12 -26 -19 -29 -15
-4 4 1 14 12 22 29 22 41 18 17 -7z m-4473 2 c0 -5 -2 -10 -4 -10 -3 0 -8 5
-11 10 -3 6 -1 10 4 10 6 0 11 -4 11 -10z m50 -30 c0 -5 -9 -10 -20 -10 -11 0
-20 5 -20 10 0 6 9 10 20 10 11 0 20 -4 20 -10z m350 -36 c0 -8 -4 -12 -10 -9
-5 3 -10 10 -10 16 0 5 5 9 10 9 6 0 10 -7 10 -16z m-415 -25 c10 -15 -1 -23
-20 -15 -9 3 -13 10 -10 16 8 13 22 13 30 -1z m2860 -50 c-204 -11 -417 -11
-410 1 4 6 104 9 273 8 234 -1 251 -2 137 -9z m-2365 -50 c0 -5 6 -6 14 -3 8
3 23 1 33 -5 15 -9 12 -10 -17 -11 -19 0 -46 -3 -60 -5 -14 -3 -19 -3 -13 1
10 4 9 9 -2 21 -8 8 -13 19 -10 23 6 10 55 -9 55 -21z m-465 -8 c3 -5 1 -12
-5 -16 -5 -3 -10 1 -10 9 0 18 6 21 15 7z m2154 -4 c6 -8 8 -16 5 -20 -10 -9
-34 4 -34 19 0 18 14 18 29 1z m-1641 -34 c-10 -2 -26 -2 -35 0 -10 3 -2 5 17
5 19 0 27 -2 18 -5z m2452 -52 c0 -17 -14 -19 -197 -25 -339 -11 -318 -12
-321 7 -2 9 -2 18 0 19 4 2 313 13 431 16 79 2 87 0 87 -17z m-4931 -40 c8
-13 7 -22 -2 -29 -18 -15 -121 -32 -128 -21 -3 5 -14 7 -25 3 -12 -4 -15 -3
-7 3 7 5 9 14 3 23 -14 23 20 39 87 40 51 0 64 -3 72 -19z m4971 -166 c24 -29
4 -61 -56 -85 -34 -14 -60 -32 -66 -46 -9 -19 -14 -21 -33 -12 -18 8 -38 5
-87 -12 -34 -12 -87 -31 -117 -41 -30 -11 -79 -31 -110 -46 l-56 -26 30 -9
c25 -7 248 7 265 17 3 1 13 0 22 -4 15 -5 14 -12 -11 -66 -40 -85 -96 -107
-140 -54 -16 18 -18 18 -103 -8 -87 -27 -115 -44 -60 -38 139 17 168 17 181 1
7 -9 11 -31 9 -49 -4 -40 -1 -43 80 -87 73 -39 83 -69 32 -95 -16 -9 -30 -18
-30 -22 0 -8 238 5 298 17 41 8 287 47 407 64 102 15 455 65 500 71 68 8 85
-6 87 -69 0 -43 -3 -53 -28 -73 -16 -13 -36 -23 -44 -23 -10 0 -7 -6 9 -19 39
-30 147 -58 296 -76 77 -9 183 -23 235 -30 52 -8 152 -14 223 -14 97 -1 127
-4 127 -14 0 -10 -44 -13 -202 -14 -112 0 -275 -6 -363 -12 -555 -38 -734 -41
-2155 -41 -2125 0 -3951 18 -4480 45 -57 3 -104 13 -138 31 -23 12 -24 14 -7
14 11 1 38 8 60 16 73 28 169 52 235 59 36 4 234 8 440 10 378 3 571 10 800
26 69 4 220 11 335 14 116 3 278 10 360 15 83 6 229 13 325 16 213 7 306 18
329 38 21 19 80 20 166 5 54 -9 294 -12 370 -5 17 2 86 9 155 15 150 15 325
52 369 80 12 8 11 13 -8 28 -20 16 -33 18 -100 11 -118 -11 -297 -26 -511 -44
-199 -16 -195 -16 -344 16 -46 10 -63 5 -71 -21 -9 -28 -34 -24 -95 16 -30 20
-72 38 -93 42 -64 10 -52 23 23 23 45 0 91 -7 128 -20 60 -21 128 -21 217 2
22 6 95 18 162 28 90 13 136 25 175 45 62 33 108 34 290 10 272 -37 280 -38
433 -27 121 8 168 16 245 41 166 53 448 156 650 236 107 42 229 89 270 104 41
15 89 34 105 43 37 21 49 22 65 3z m283 -42 c-7 -2 -19 -2 -25 0 -7 3 -2 5 12
5 14 0 19 -2 13 -5z m-4296 -196 c79 -29 167 -69 138 -63 -44 10 -185 18 -185
11 0 -18 46 -45 79 -47 81 -3 112 -6 127 -12 8 -3 23 0 34 6 18 12 69 1 270
-58 25 -7 60 -16 78 -19 49 -10 40 -29 -10 -21 -52 9 -60 9 -120 0 -27 -3 -48
-11 -48 -15 0 -5 1 -9 3 -9 104 -8 155 -15 212 -33 58 -18 93 -22 200 -21 72
0 139 5 150 11 31 17 209 -7 213 -28 5 -25 -19 -30 -203 -39 -218 -12 -433
-27 -560 -40 -124 -12 -242 -13 -249 -1 -3 4 11 19 32 32 24 16 40 36 47 59 5
19 14 41 18 48 5 7 6 20 3 30 -8 26 4 37 54 50 38 9 25 10 -80 6 -69 -3 -130
-10 -137 -16 -24 -19 -113 20 -113 50 0 5 -17 13 -37 16 -71 13 -104 27 -102
44 1 10 -1 25 -5 34 -4 9 -2 26 4 39 11 19 18 21 65 16 29 -3 84 -17 122 -30z
m-360 2 c24 -11 59 -39 79 -62 35 -41 36 -43 30 -112 -3 -38 -8 -87 -12 -108
-5 -28 -2 -43 11 -57 21 -24 105 -44 156 -37 21 3 57 3 80 0 l40 -6 -26 -17
c-28 -18 -34 -18 -275 -6 -98 5 -241 18 -341 30 -14 2 -52 -5 -84 -17 -57 -19
-61 -19 -131 -3 -66 16 -80 16 -175 2 -57 -9 -115 -13 -128 -9 -14 3 -26 1
-31 -6 -10 -17 -50 7 -50 30 0 9 -7 23 -17 30 -9 8 -22 28 -29 44 -17 42 -80
112 -116 131 -16 8 -63 22 -105 30 -87 16 -93 19 -93 43 0 12 14 26 37 37 31
14 79 19 253 25 118 5 265 13 325 18 61 5 173 15 250 21 77 7 142 14 144 16 2
2 40 4 85 4 60 0 90 -5 123 -21z m931 -105 c12 -2 22 -11 22 -19 0 -18 6 -18
-77 1 -90 21 -106 37 -28 29 33 -4 70 -8 83 -11z m107 5 c11 -17 -1 -21 -15
-4 -8 9 -8 15 -2 15 6 0 14 -5 17 -11z m232 -103 c4 -8 17 -16 28 -19 19 -4
18 -5 -2 -6 -12 0 -25 4 -28 9 -3 6 -15 10 -25 10 -21 0 -34 15 -25 30 7 12
40 -3 52 -24z m-793 -161 c-7 -16 -24 -21 -24 -6 0 8 7 13 27 20 1 1 0 -6 -3
-14z"/>
<path d="M3290 7320 c-8 -5 -10 -10 -5 -10 6 0 17 5 25 10 8 5 11 10 5 10 -5
0 -17 -5 -25 -10z"/>
<path d="M4093 7283 c9 -2 23 -2 30 0 6 3 -1 5 -18 5 -16 0 -22 -2 -12 -5z"/>
<path d="M3970 7269 c-236 -65 -374 -105 -415 -121 -82 -32 -309 -149 -330
-170 -14 -15 -11 -13 175 79 160 79 305 129 580 202 41 11 64 20 50 19 -14 0
-41 -4 -60 -9z"/>
<path d="M4584 7193 c10 -17 96 -76 96 -66 0 4 -17 19 -38 33 -20 13 -43 29
-51 35 -11 7 -13 7 -7 -2z"/>
<path d="M3037 7103 c-4 -4 6 -12 22 -19 20 -8 34 -25 46 -58 10 -25 21 -46
25 -46 11 0 0 42 -16 60 -7 8 -16 27 -19 43 -5 19 -13 27 -29 27 -13 0 -26 -3
-29 -7z"/>
<path d="M5016 6992 c-2 -4 11 -26 31 -48 114 -127 184 -230 284 -421 56 -108
66 -123 82 -123 7 0 7 4 -1 12 -7 7 -12 17 -12 22 0 6 4 5 8 -2 7 -10 13 -8
26 7 17 19 17 20 -3 40 -16 16 -19 28 -14 53 3 18 10 39 16 45 6 9 6 22 -1 40
-6 16 -16 56 -23 91 -8 37 -18 62 -26 62 -8 0 -13 14 -13 39 0 25 -5 39 -12
38 -38 -1 -45 4 -41 27 5 26 0 29 -68 40 -25 5 -38 13 -42 26 -4 16 -11 19
-36 14 -23 -5 -32 -2 -37 10 -3 9 -10 13 -15 10 -6 -3 -16 -1 -23 5 -7 6 -21
9 -30 5 -9 -3 -23 -1 -30 5 -8 7 -17 8 -20 3z m424 -536 c0 -3 -4 -8 -10 -11
-5 -3 -10 -1 -10 4 0 6 5 11 10 11 6 0 10 -2 10 -4z"/>
<path d="M3122 6908 c-6 -18 -8 -34 -3 -37 45 -29 244 -220 311 -300 47 -56
88 -101 91 -101 3 0 3 -26 1 -58 l-4 -58 41 -28 c38 -27 46 -28 111 -24 60 5
74 9 95 32 28 30 34 76 10 76 -8 0 -12 6 -10 13 4 9 -12 12 -59 12 -58 0 -68
3 -95 29 -17 17 -31 40 -31 53 0 26 -15 30 -28 7 -7 -13 -20 -3 -68 52 -113
130 -150 169 -248 266 -54 54 -99 98 -100 98 -1 0 -7 -14 -14 -32z"/>
<path d="M4892 6759 c2 -7 10 -15 17 -17 8 -3 12 1 9 9 -2 7 -10 15 -17 17 -8
3 -12 -1 -9 -9z"/>
<path d="M4950 6730 c0 -5 -7 -6 -17 -3 -30 12 -4 -14 28 -27 25 -11 32 -11
39 0 6 9 1 18 -17 27 -30 16 -33 16 -33 3z"/>
<path d="M4830 6696 c0 -22 -24 -23 -185 -13 -240 16 -403 -7 -595 -83 -142
-56 -240 -103 -240 -116 0 -19 2 -18 78 15 37 16 139 55 227 86 156 56 164 58
310 67 83 5 206 7 273 3 116 -7 126 -9 155 -35 49 -42 91 -60 142 -60 41 0 45
2 45 23 0 27 -40 70 -47 51 -3 -9 -12 -8 -33 3 -17 8 -30 17 -30 19 0 3 5 2
12 -2 6 -4 8 -3 5 4 -4 5 -17 8 -30 5 -18 -4 -19 -3 -7 6 12 9 11 11 -7 11
-13 0 -23 5 -23 11 0 5 5 7 12 3 6 -4 8 -3 5 2 -9 16 -67 16 -67 0z"/>
<path d="M5060 6671 c0 -5 5 -13 10 -16 6 -3 10 -2 10 4 0 5 -4 13 -10 16 -5
3 -10 2 -10 -4z"/>
<path d="M3661 6533 c-7 -8 -11 -15 -10 -17 2 -1 18 -8 34 -16 17 -8 33 -16
38 -18 4 -2 4 3 1 12 -7 19 7 21 23 5 9 -9 12 -7 10 8 -1 13 -6 19 -15 15 -8
-3 -18 1 -22 9 -7 11 -10 10 -16 -5 -7 -17 -8 -17 -18 2 -10 17 -13 18 -25 5z"/>
<path d="M3638 6493 c6 -2 18 -2 25 0 6 3 1 5 -13 5 -14 0 -19 -2 -12 -5z"/>
<path d="M4585 6315 c-5 -2 -37 -7 -70 -11 -33 -3 -55 -8 -50 -10 6 -2 62 2
125 10 82 10 99 14 60 14 -30 0 -59 -1 -65 -3z"/>
<path d="M4928 6313 c6 -2 18 -2 25 0 6 3 1 5 -13 5 -14 0 -19 -2 -12 -5z"/>
<path d="M5058 6303 c7 -3 16 -2 19 1 4 3 -2 6 -13 5 -11 0 -14 -3 -6 -6z"/>
<path d="M4418 6283 c6 -2 18 -2 25 0 6 3 1 5 -13 5 -14 0 -19 -2 -12 -5z"/>
<path d="M4345 6273 c-79 -19 -249 -84 -345 -134 -147 -75 -223 -119 -217
-125 5 -5 68 27 167 83 129 73 234 116 420 171 34 10 14 14 -25 5z"/>
<path d="M5460 6203 c0 -7 6 -18 13 -25 7 -7 21 -24 30 -38 11 -16 17 -19 17
-9 0 8 -13 31 -30 49 -16 18 -30 29 -30 23z"/>
<path d="M5295 6170 c-3 -5 1 -10 9 -10 9 0 16 5 16 10 0 6 -4 10 -9 10 -6 0
-13 -4 -16 -10z"/>
<path d="M5296 6142 c-3 -5 12 -25 32 -44 62 -59 107 -73 95 -29 -3 11 -15 22
-28 25 -13 3 -27 15 -30 27 -4 12 -12 18 -21 15 -7 -3 -16 -1 -19 4 -8 12 -22
13 -29 2z"/>
<path d="M3794 5938 c-62 -20 -66 -86 -9 -124 22 -14 32 -15 65 -5 40 12 70
43 70 72 0 9 -9 28 -21 43 -22 28 -50 32 -105 14z m16 -63 c0 -8 -4 -15 -10
-15 -5 0 -10 7 -10 15 0 8 5 15 10 15 6 0 10 -7 10 -15z m70 5 c0 -5 -4 -10
-10 -10 -5 0 -10 5 -10 10 0 6 5 10 10 10 6 0 10 -4 10 -10z"/>
<path d="M3440 5839 c0 -5 5 -7 10 -4 6 3 10 8 10 11 0 2 -4 4 -10 4 -5 0 -10
-5 -10 -11z"/>
<path d="M2100 5560 c0 -5 5 -10 10 -10 6 0 10 5 10 10 0 6 -4 10 -10 10 -5 0
-10 -4 -10 -10z"/>
<path d="M2150 5560 c0 -5 5 -10 11 -10 5 0 7 5 4 10 -3 6 -8 10 -11 10 -2 0
-4 -4 -4 -10z"/>
<path d="M7600 7185 c0 -8 7 -15 16 -15 14 0 14 3 4 15 -7 8 -14 15 -16 15 -2
0 -4 -7 -4 -15z"/>
<path d="M4722 5873 c-18 -32 -15 -51 4 -25 8 12 14 28 11 35 -2 7 -8 3 -15
-10z"/>
<path d="M4871 5854 c-18 -21 -6 -30 14 -11 8 9 15 18 15 21 0 11 -15 5 -29
-10z"/>
<path d="M4672 5823 c-15 -27 -15 -46 -2 -38 6 4 8 10 5 15 -3 4 0 10 6 12 7
2 10 11 7 18 -3 11 -8 10 -16 -7z"/>
<path d="M4741 5823 c0 -7 -6 -13 -12 -13 -15 0 -59 -42 -59 -57 0 -20 26 -15
55 10 20 16 26 29 22 47 -2 14 -5 19 -6 13z"/>
<path d="M4813 5818 c-23 -30 -24 -41 -2 -21 12 12 20 25 17 28 -3 3 -10 0
-15 -7z"/>
<path d="M4530 5779 c0 -19 5 -41 10 -49 7 -10 8 -1 4 30 -8 56 -14 64 -14 19z"/>
<path d="M4592 5775 c-9 -20 -9 -25 1 -25 17 0 37 20 37 37 0 22 -26 14 -38
-12z"/>
<path d="M4920 5740 c0 -5 5 -10 11 -10 5 0 7 5 4 10 -3 6 -8 10 -11 10 -2 0
-4 -4 -4 -10z"/>
<path d="M4591 5693 c-1 -6 -3 -18 -6 -26 -4 -8 0 -14 10 -14 17 0 17 3 5 32
-5 11 -9 15 -9 8z"/>
<path d="M4661 5514 c0 -11 3 -14 6 -6 3 7 2 16 -1 19 -3 4 -6 -2 -5 -13z"/>
<path d="M5220 5250 c0 -5 6 -10 14 -10 8 0 18 5 21 10 3 6 -3 10 -14 10 -12
0 -21 -4 -21 -10z"/>
<path d="M5227 5189 c7 -7 15 -10 18 -7 3 3 -2 9 -12 12 -14 6 -15 5 -6 -5z"/>
<path d="M4310 4740 c0 -19 3 -21 12 -12 9 9 9 15 0 24 -9 9 -12 7 -12 -12z"/>
<path d="M4350 4720 c0 -5 5 -10 10 -10 6 0 10 5 10 10 0 6 -4 10 -10 10 -5 0
-10 -4 -10 -10z"/>
<path d="M4446 4723 c-11 -11 -7 -22 13 -33 14 -7 22 -7 27 2 4 7 3 8 -4 4 -7
-4 -12 -1 -12 8 0 17 -14 29 -24 19z"/>
<path d="M3052 5813 c-6 -2 -10 -9 -6 -14 8 -14 21 -11 28 6 6 15 1 17 -22 8z"/>
<path d="M5536 4630 c-17 -30 -5 -53 17 -31 6 6 19 11 29 11 15 0 17 4 9 19
-17 31 -37 31 -55 1z"/>
<path d="M5790 4486 c0 -2 8 -10 18 -17 15 -13 16 -12 3 4 -13 16 -21 21 -21
13z"/>
<path d="M5876 4044 c-9 -24 -7 -28 9 -14 17 14 20 30 6 30 -5 0 -12 -7 -15
-16z"/>
<path d="M5383 3957 c-29 -10 -33 -16 -33 -44 0 -61 24 -100 68 -114 61 -18
72 -9 72 56 0 49 -4 60 -29 86 -32 31 -31 31 -78 16z m77 -67 c5 -10 10 -25 9
-32 0 -7 -5 -3 -11 9 -8 17 -17 21 -34 17 -19 -5 -24 -2 -24 13 0 11 3 23 6
26 10 9 42 -10 54 -33z"/>
<path d="M6645 3850 c-4 -6 -11 -7 -17 -4 -7 4 -8 2 -4 -4 7 -12 36 -5 36 9 0
12 -7 11 -15 -1z"/>
<path d="M5595 3839 c-4 -6 -5 -12 -2 -15 2 -3 7 2 10 11 7 17 1 20 -8 4z"/>
<path d="M6364 3775 c-4 -8 -14 -15 -23 -16 -12 0 -12 -2 4 -9 28 -12 47 -12
40 0 -3 6 -1 10 4 10 6 0 11 7 11 15 0 8 -7 15 -15 15 -9 0 -18 -7 -21 -15z"/>
<path d="M6035 3665 c-22 -13 -36 -25 -31 -25 10 0 76 39 76 46 0 7 -3 5 -45
-21z"/>
<path d="M2270 3811 c0 -7 -9 -9 -25 -5 -21 5 -25 3 -25 -15 0 -14 -6 -21 -20
-21 -11 0 -20 -7 -20 -15 0 -8 -7 -15 -16 -15 -8 0 -13 -4 -9 -9 3 -5 -9 -12
-27 -14 -30 -4 -31 -5 -10 -12 32 -11 27 -25 -10 -26 -31 0 -32 -1 -10 -11 27
-14 29 -28 2 -28 -11 0 -20 5 -20 11 0 5 -4 8 -9 5 -10 -7 -3 -44 10 -52 5 -3
6 2 2 12 -5 14 -3 15 17 4 15 -8 20 -8 16 -1 -4 6 -3 11 2 11 5 0 21 12 35 26
20 19 31 24 49 18 21 -6 22 -5 8 11 -14 16 -13 17 8 11 13 -5 22 -3 22 3 0 6
8 10 18 9 45 -4 60 2 55 21 -3 10 0 29 7 41 9 17 14 19 26 9 20 -16 31 -2 13
17 -20 19 -89 31 -89 15z"/>
<path d="M2720 3769 c0 -5 5 -7 10 -4 6 3 10 8 10 11 0 2 -4 4 -10 4 -5 0 -10
-5 -10 -11z"/>
<path d="M3458 3603 c6 -2 18 -2 25 0 6 3 1 5 -13 5 -14 0 -19 -2 -12 -5z"/>
<path d="M2425 3301 c-26 -6 -27 -8 -10 -13 29 -9 92 -19 78 -12 -7 3 -13 12
-13 20 0 15 -8 16 -55 5z"/>
<path d="M2298 3249 c-25 -27 -23 -29 22 -29 33 0 40 4 40 19 0 17 -20 32 -38
30 -4 0 -15 -9 -24 -20z"/>
<path d="M2545 3230 c-4 -6 4 -10 17 -10 14 0 33 -7 44 -15 10 -8 32 -15 47
-15 43 0 28 24 -19 31 -21 3 -49 9 -61 13 -12 4 -24 2 -28 -4z"/>
<path d="M1865 3170 c-3 -5 1 -10 9 -10 9 0 16 5 16 10 0 6 -4 10 -9 10 -6 0
-13 -4 -16 -10z"/>
<path d="M1730 3146 c0 -2 7 -6 15 -10 8 -3 15 -1 15 4 0 6 -7 10 -15 10 -8 0
-15 -2 -15 -4z"/>
<path d="M1830 3104 c-35 -12 -66 -27 -68 -33 -6 -17 24 -13 38 4 9 11 22 14
42 10 15 -4 44 -1 63 5 29 10 34 14 24 26 -14 17 -18 17 -99 -12z"/>
<path d="M2478 3123 c7 -3 16 -2 19 1 4 3 -2 6 -13 5 -11 0 -14 -3 -6 -6z"/>
<path d="M1820 3071 c0 -6 5 -13 10 -16 6 -3 10 1 10 9 0 9 -4 16 -10 16 -5 0
-10 -4 -10 -9z"/>
<path d="M2920 4122 c0 -13 38 -23 46 -11 3 5 1 9 -5 9 -5 0 -16 3 -25 6 -9 3
-16 2 -16 -4z"/>
<path d="M3665 3350 c3 -5 10 -10 16 -10 5 0 9 5 9 10 0 6 -7 10 -16 10 -8 0
-12 -4 -9 -10z"/>
<path d="M3947 2453 c-4 -3 -7 -42 -7 -85 0 -62 3 -78 15 -78 12 0 14 14 9 82
-5 86 -6 92 -17 81z"/>
<path d="M4027 2423 c-4 -3 -7 -25 -7 -49 0 -24 -5 -45 -12 -48 -7 -2 -2 -4
12 -3 14 1 29 7 33 12 6 7 10 6 13 0 2 -6 20 -9 40 -7 25 3 32 7 23 13 -8 4
-14 19 -15 31 -2 58 -3 58 -42 58 -21 0 -42 -3 -45 -7z"/>
<path d="M1512 1450 c0 -14 2 -19 5 -12 2 6 2 18 0 25 -3 6 -5 1 -5 -13z"/>
<path d="M3203 2110 c-51 -21 -40 -119 17 -158 41 -28 74 -23 108 15 19 20 22
33 18 57 -13 63 -89 109 -143 86z"/>
<path d="M3460 2079 c-18 -32 -2 -75 41 -113 44 -40 83 -47 99 -17 21 41 2 80
-62 128 -39 28 -64 29 -78 2z"/>
<path d="M3352 1928 c-16 -16 -15 -68 3 -112 26 -63 99 -82 148 -39 33 30 14
101 -39 142 -30 23 -93 28 -112 9z"/>
<path d="M3750 1911 c0 -6 4 -13 10 -16 6 -3 7 1 4 9 -7 18 -14 21 -14 7z"/>
<path d="M3604 1795 c-49 -74 64 -216 127 -159 28 25 23 70 -11 125 -41 63
-88 77 -116 34z"/>
<path d="M3641 1541 c-12 -16 -21 -36 -21 -45 0 -9 -5 -16 -11 -16 -8 0 -8 -4
0 -14 6 -7 9 -21 5 -29 -9 -24 42 -67 80 -67 34 1 54 14 74 48 26 47 -31 152
-84 152 -14 0 -31 -11 -43 -29z"/>
<path d="M3820 1170 c-13 -25 -5 -40 20 -40 13 0 17 5 14 15 -4 9 1 18 11 21
13 5 14 9 3 15 -21 14 -37 10 -48 -11z"/>
<path d="M5496 2134 c-9 -22 -8 -24 10 -24 19 0 49 -28 39 -38 -3 -4 -11 1
-16 11 -13 22 -27 22 -31 0 -2 -12 -12 -18 -28 -18 -22 0 -25 -5 -28 -42 l-3
-42 33 4 c18 2 39 4 46 4 7 1 12 15 12 35 0 34 1 35 42 38 l43 3 -25 23 c-13
12 -20 22 -16 22 4 0 0 7 -9 16 -12 13 -19 14 -30 4 -12 -10 -15 -9 -15 4 0
21 -16 21 -24 0z m11 -106 c-3 -8 -6 -5 -6 6 -1 11 2 17 5 13 3 -3 4 -12 1
-19z"/>
<path d="M5355 2070 c3 -5 11 -10 16 -10 6 0 7 5 4 10 -3 6 -11 10 -16 10 -6
0 -7 -4 -4 -10z"/>
<path d="M5660 2035 c0 -37 3 -45 18 -45 24 0 42 19 43 45 0 13 4 9 10 -12 9
-31 12 -33 55 -33 45 0 45 0 42 32 -3 26 -9 33 -42 45 -26 9 -43 10 -51 3 -6
-5 -14 -8 -16 -6 -2 2 -16 6 -31 10 -27 6 -28 5 -28 -39z"/>
<path d="M5845 2072 c-3 -3 -5 -22 -5 -43 0 -37 1 -38 34 -37 29 1 36 5 39 27
l4 26 2 -27 c1 -24 5 -28 32 -28 29 0 30 1 26 40 -5 51 -11 56 -41 36 -14 -8
-27 -12 -30 -7 -7 10 -53 20 -61 13z"/>
<path d="M5033 2044 c-3 -8 -1 -20 6 -27 8 -8 11 -4 9 16 -3 31 -6 34 -15 11z"/>
<path d="M5560 2020 c0 -26 3 -28 40 -28 37 -1 40 1 40 26 0 25 -4 27 -40 29
-37 1 -40 -1 -40 -27z"/>
<path d="M4710 870 c-11 -7 -5 -8 20 -4 43 8 51 14 19 14 -13 0 -31 -5 -39
-10z"/>
<path d="M4830 819 c-9 -15 -8 -24 1 -35 10 -13 14 -12 30 2 23 21 24 40 3 48
-22 8 -22 8 -34 -15z"/>
<path d="M2080 970 c0 -5 5 -10 11 -10 5 0 7 5 4 10 -3 6 -8 10 -11 10 -2 0
-4 -4 -4 -10z"/>
<path d="M6792 1654 c-46 -32 -18 -118 44 -130 44 -8 79 1 104 28 28 30 25 54
-9 89 -24 23 -38 29 -73 29 -24 0 -54 -7 -66 -16z"/>
<path d="M7060 1647 c0 -2 9 -22 20 -45 21 -44 36 -56 27 -22 -3 10 0 21 7 23
6 2 0 13 -14 25 -22 19 -40 27 -40 19z"/>
<path d="M6594 1544 c-17 -8 -36 -25 -42 -37 -15 -29 -32 -109 -26 -119 12
-19 154 2 154 23 0 5 8 6 18 3 12 -4 13 -3 4 3 -9 7 -11 22 -6 51 5 35 3 44
-19 66 -30 30 -40 31 -83 10z"/>
<path d="M6996 1489 c-14 -17 -24 -35 -20 -40 3 -5 25 -9 50 -9 50 0 64 16 46
56 -16 33 -45 30 -76 -7z"/>
<path d="M6260 1485 c14 -16 40 -20 40 -6 0 9 -24 21 -42 21 -6 0 -6 -6 2 -15z"/>
</g>
</svg>
